<svg id="Camada_1" data-name="Camada 1" xmlns="http://www.w3.org/2000/svg" viewBox="0 0 28.27 30.23"><defs><style>.cls-1{fill:#aac1ed;}.cls-2{fill:#010101;}.cls-3{fill:#7390b8;}.cls-11,.cls-12,.cls-13,.cls-4,.cls-9{fill:none;stroke-linecap:round;stroke-linejoin:round;stroke-width:0;}.cls-4{stroke:#7291b9;}.cls-5{fill:#7491b6;}.cls-6{fill:#718db2;}.cls-7{fill:#7690b7;}.cls-8{fill:#788da8;}.cls-9{stroke:#798fa8;}.cls-10{fill:#04040b;}.cls-11{stroke:#738caa;}.cls-12{stroke:#7c91ac;}.cls-13{stroke:#7a8daa;}.cls-14{fill:#030206;}.cls-15{fill:#020107;}.cls-16{fill:#030308;}.cls-17{fill:#04050c;}.cls-18{fill:#040309;}.cls-19{fill:#030208;}.cls-20{fill:#03030d;}.cls-21{fill:#04050b;}.cls-22{fill:#05070e;}.cls-23{fill:#aabce3;}.cls-24{fill:#aabbde;}.cls-25{fill:#abbde2;}.cls-26{fill:#050812;}.cls-27{fill:#070812;}.cls-28{fill:#a9bce1;}.cls-29{fill:#a9badf;}.cls-30{fill:#05050d;}.cls-31{fill:#9fc5fe;}.cls-32{fill:#9fc5fd;}.cls-33{fill:#00020c;}.cls-34{fill:#020203;}.cls-35{fill:#93a3c4;}.cls-36{fill:#9fc4fa;}.cls-37{fill:#97b6e2;}.cls-38{fill:#8ca5cf;}.cls-39{fill:#9dbff0;}.cls-40{fill:#9dc2f5;}.cls-41{fill:#a5c2f5;}.cls-42{fill:#0a0d16;}.cls-43{fill:#99abce;}.cls-44{fill:#9db0d5;}.cls-45{fill:#98a9cb;}.cls-46{fill:#8a99b9;}.cls-47{fill:#03040a;}.cls-48{fill:#8e9cbd;}.cls-49{fill:#8a9abb;}.cls-50{fill:#8a97b8;}.cls-51{fill:#9dc0ef;}.cls-52{fill:#97a8c9;}.cls-53{fill:#9caed4;}.cls-54{fill:#a3b9df;}.cls-55{fill:#a9c4f7;}.cls-56{fill:#8892b8;}.cls-57{fill:#a7c8f8;}.cls-58{fill:#97a6cf;}.cls-59{fill:#99abd1;}.cls-60{fill:#607faf;}.cls-61{fill:#9aadd2;}.cls-62{fill:#9aabcf;}.cls-63{fill:#9aacd1;}.cls-64{fill:#a9bbdd;}.cls-65{fill:#97b8ea;}.cls-66{fill:#7c8fb1;}.cls-67{fill:#9bbbe9;}.cls-68{fill:#a1c4f6;}.cls-69{fill:#a2c9fa;}.cls-70{fill:#a5c9f8;}.cls-71{fill:#a9ccfd;}.cls-72{fill:#a5cbfd;}.cls-73{fill:#adcffd;}.cls-74{fill:#10121b;}.cls-75{fill:#9dbded;}.cls-76{fill:#a3c6f0;}.cls-77{fill:#b0cefc;}.cls-78{fill:#010102;}.cls-79{fill:#0d0f17;}.cls-80{fill:#020305;}.cls-81{fill:#040609;}.cls-82{fill:#3b434f;}.cls-83{fill:#44474d;}.cls-84{fill:#3f4147;}.cls-85{fill:#464a52;}.cls-86{fill:#454a53;}.cls-87{fill:#41454b;}.cls-88{fill:#484d5a;}.cls-89{fill:#020205;}.cls-90{fill:#131623;}.cls-91{fill:#161824;}.cls-92{fill:#1a2232;}.cls-93{fill:#3f444c;}.cls-94{fill:#474e5b;}.cls-95{fill:#40454c;}.cls-96{fill:#7d869f;}.cls-97{fill:#424952;}.cls-98{fill:#434853;}.cls-99{fill:#75839b;}.cls-100{fill:#232c3d;}.cls-101{fill:#020204;}.cls-102{fill:#010103;}.cls-103{fill:#05050b;}.cls-104{fill:#101525;}.cls-105{fill:#030205;}.cls-106{fill:#010009;}.cls-107{fill:#7f7f7f;}.cls-108{fill:#7d7e7e;}.cls-109{fill:#7f7f80;}.cls-110{fill:#807f80;}.cls-111{fill:#07080c;}.cls-112{fill:#a0c4f7;}.cls-113{fill:#9ec0ef;}.cls-114{fill:#9abae5;}.cls-115{fill:#424446;}.cls-116{fill:#a6cdfe;}.cls-117{fill:#818eae;}.cls-118{fill:#6a7a8e;}</style></defs><title>Prancheta 1 cópia</title><path class="cls-1" d="M4.42,21.83a1.48,1.48,0,0,1-.13-.21Z"/><path class="cls-1" d="M14.08,3.11a11.84,11.84,0,0,0-11.72,12A12.08,12.08,0,0,0,4,21.21a13.47,13.47,0,0,1-1-2.29H3a12.72,12.72,0,0,1-.47-2.05c0-.12,0-.24,0-.36a.11.11,0,0,1,0-.05c0-.16,0-.32,0-.47v0c0-.28,0-.55,0-.83s0-.45,0-.67,0-.45.05-.67l.21-1.24a.13.13,0,0,0,0-.06c.05-.23.11-.46.17-.68L3,11.48l.15-.42a13.94,13.94,0,0,1,1-2.14l0-.06a8.6,8.6,0,0,1,.49-.74c.11-.16.23-.31.35-.46H5l0-.08,0,0,.28-.32c.1-.12.21-.23.32-.35a.35.35,0,0,0,.11-.13c.21-.21.42-.41.64-.6l.51-.43c.15-.13.31-.25.48-.37l.11-.08,0,0a.21.21,0,0,0,.11-.07l.07,0,.06,0,.32-.2a1.19,1.19,0,0,0,.15-.09c.36-.21.73-.41,1.12-.59A13,13,0,0,1,12,3.38c.24,0,.47-.08.71-.11l.22,0,.26,0c.3,0,.59,0,.88,0s.47,0,.7,0a3.77,3.77,0,0,1,.48,0,13.05,13.05,0,0,1,2.05.41c.08.06.2,0,.27.1l.3.08a11.83,11.83,0,0,1,7,6.55l0,.07A11.73,11.73,0,0,0,14.08,3.11Z"/><path class="cls-2" d="M17.91,3.83l-.3-.08c-.11,0-.24.13-.27-.1a13.05,13.05,0,0,0-2.05-.41,3.77,3.77,0,0,0-.48,0c-.52,0-1.05,0-1.58,0l-.26,0-.22,0c-.24,0-.47.06-.71.11a13,13,0,0,0-2.66.82c-.39.18-.76.38-1.12.59a1.19,1.19,0,0,1-.15.09l-.32.2-.06,0-.07,0a.21.21,0,0,1-.11.07l0,0-.11.08c-.17.12-.33.24-.48.37l-.51.43c-.22.19-.43.39-.64.6a.35.35,0,0,1-.11.13c-.11.12-.22.23-.32.35a1,1,0,0,0-.14.21v0c-.06.11.18.16.07.26S5.11,7.6,5,7.66H5c-.12.15-.24.3-.35.46a8.6,8.6,0,0,0-.49.74l0,.06a13.94,13.94,0,0,0-1,2.14L3,11.48l-.09.33c-.06.22-.12.45-.17.68a.13.13,0,0,1,0,.06l-.21,1.24c0,.22,0,.44-.05.67a12.51,12.51,0,0,0,0,1.5v0c0,.15,0,.31,0,.47a.11.11,0,0,0,0,.05c0,.12,0,.24,0,.36A14.52,14.52,0,0,0,3,18.92a13.47,13.47,0,0,0,1,2.29c.08.14.16.28.25.41a1.48,1.48,0,0,0,.13.21,11.68,11.68,0,0,0,8,5.05,2.29,2.29,0,0,1,.78-.09c.15,0,.21.06.2.19.22,0,.44,0,.66,0a11.83,11.83,0,0,0,11.72-12c0-.39,0-.78-.05-1.16a.46.46,0,0,1-.09-.59c0-.1,0-.2,0-.3s-.07-.19-.2-.23h.17a12.8,12.8,0,0,0-.69-2.33l0-.07A11.83,11.83,0,0,0,17.91,3.83Zm6.07,16a1.45,1.45,0,0,0-.09.22.8.8,0,0,0,0,.15c.07.29,0,.37-.33.46v0h0a1.09,1.09,0,0,0,0,.26c0,.11,0,.14-.07.09s-.09,0-.09,0c0,.32-.31.27-.42.43l-.95,1.17a.7.7,0,0,1-.49.52c-.45.42-.93.79-1.41,1.16,0,.1-.09.12-.17.11,0,.19-.1.08-.16.11a1.31,1.31,0,0,0-.36.21c.06.23-.1.09-.17.1a.38.38,0,0,1-.41.22c-.07.23-.25.22-.44.21a12.78,12.78,0,0,1-2.33.71,10.35,10.35,0,0,1-2.94.15l-.45,0h0c-.13,0-.29.15-.39,0a12.86,12.86,0,0,1-2.12-.61L10,25.41a.51.51,0,0,1-.4-.05A.55.55,0,0,0,9,25.3c-.09.05-.44-.25-.42-.34s.17-.05.18-.16a11.2,11.2,0,0,1-2.23-1.71,10.42,10.42,0,0,1-2.11-2.94,1.38,1.38,0,0,1-.21-.44h0a.4.4,0,0,1-.09-.21.05.05,0,0,1,0-.05A.39.39,0,0,1,4,19.23a8.69,8.69,0,0,1-.65-2.41,1.59,1.59,0,0,1-.06-.38A10.12,10.12,0,0,1,3.3,14a11.22,11.22,0,0,1,1.1-3.84L4.49,10a.73.73,0,0,1,.17-.31h0a.21.21,0,0,1,.1-.16A7.35,7.35,0,0,1,5.81,8c.31-.36.64-.7,1-1V6.71h0c-.22,0-.24-.25-.43-.26a.2.2,0,0,1,.05-.16.1.1,0,0,1,.15,0l.23.37h0c.07,0,.15,0,.22,0L7.94,6c0-.12.11-.14.22-.15.06-.21.23-.26.42-.27a12.21,12.21,0,0,1,2.18-1c.34-.11.69-.2,1-.3.1-.2.3-.19.47-.2s.4,0,.6,0h.25A10.61,10.61,0,0,1,19.9,5.71l.09,0A.27.27,0,0,1,20.3,6c0,.06.1.07.15.1s.16,0,.17.11l.63.52a.23.23,0,0,1,.22.21.13.13,0,0,0,.11.11.24.24,0,0,1,.21.2h0a.15.15,0,0,0,.2,0c.05-.06.13-.08.18,0a.08.08,0,0,1-.05.14c-.19.06,0,.16,0,.23a11.38,11.38,0,0,1,2,3.08,5.78,5.78,0,0,1,.34,1,.63.63,0,0,1,.1.29.06.06,0,0,1,0,0,.74.74,0,0,1,.09.33,12.84,12.84,0,0,1,.28,1.4A11.27,11.27,0,0,1,24,19.85Z"/><path class="cls-3" d="M3,18.92H3a14.52,14.52,0,0,1-.48-2.05A12.72,12.72,0,0,0,3,18.92Z"/><path class="cls-4" d="M3,11.48l-.09.33"/><path class="cls-5" d="M14.11,3.18c-.29,0-.58,0-.88,0,.53,0,1.06,0,1.58,0C14.58,3.2,14.35,3.18,14.11,3.18Z"/><path class="cls-6" d="M2.42,14.46c0,.22,0,.44,0,.67s0,.55,0,.83h0A12.51,12.51,0,0,1,2.42,14.46Z"/><path class="cls-7" d="M2.43,16v0Z"/><path class="cls-8" d="M5.33,7.23l-.28.32.14-.11A1,1,0,0,1,5.33,7.23Z"/><path class="cls-9" d="M8.26,4.79a1.19,1.19,0,0,1-.15.09"/><path class="cls-10" d="M5.26,7.75c.11-.1-.13-.15-.07-.26v0l-.14.11,0,0,0,.08H5C5.11,7.6,5.13,7.88,5.26,7.75Z"/><path class="cls-11" d="M5.76,6.75a.35.35,0,0,1-.11.13"/><path class="cls-10" d="M17.61,3.75c-.07-.08-.19,0-.27-.1C17.37,3.88,17.5,3.78,17.61,3.75Z"/><path class="cls-12" d="M7.39,5.35l.11-.08"/><path class="cls-13" d="M7.79,5.08l-.06,0"/><path class="cls-1" d="M19.15,19.54s0,.05-.06.06l.06-.06Z"/><path class="cls-1" d="M17.67,19.18h0Z"/><path class="cls-1" d="M24.54,11.93a.06.06,0,0,0,0,0s-.09.09-.1,0a2.61,2.61,0,0,1,0-.28,5.78,5.78,0,0,0-.34-1,11.38,11.38,0,0,0-2-3.08,1.57,1.57,0,0,0-.3-.33h0a1,1,0,0,0-.21-.2.13.13,0,0,1-.11-.11.73.73,0,0,0-.22-.21l-.63-.52a.28.28,0,0,1-.17-.11c-.05,0-.12,0-.15-.1L20,5.76l-.09,0a10.61,10.61,0,0,0-6.78-1.63.18.18,0,0,1-.27,0c-.09.26-.24.1-.38,0l-.67.1c-.35.1-.7.19-1,.3a12.21,12.21,0,0,0-2.18,1,1.58,1.58,0,0,1-.42.27h0A.54.54,0,0,1,7.94,6L7,6.72a.74.74,0,0,1-.23.2c-.32.35-.65.69-1,1a7.35,7.35,0,0,0-1,1.54c.06.11,0,.13-.1.16h0c.21.25-.1.22-.17.31l-.09.16A11.22,11.22,0,0,0,3.3,14a10.12,10.12,0,0,0,0,2.46c.22.1.17.23.06.38A8.69,8.69,0,0,0,4,19.23c.07.06.16.11.08.22a.05.05,0,0,0,0,.05c.18,0,.19.09.1.21a.45.45,0,0,1,.2.44,10.42,10.42,0,0,0,2.11,2.94A11.2,11.2,0,0,0,8.78,24.8l1.23.61.25.08a12.86,12.86,0,0,0,2.12.61.86.86,0,0,1,.39,0h0l.45,0A10.35,10.35,0,0,0,16.16,26a12.78,12.78,0,0,0,2.33-.71,1.27,1.27,0,0,1,.44-.21,1.3,1.3,0,0,1,.42-.22h0a.23.23,0,0,1,.17-.1,1.31,1.31,0,0,1,.36-.21.23.23,0,0,1,.16-.11h0a.28.28,0,0,1,.17-.11c.48-.37,1-.74,1.41-1.16l.49-.52.95-1.17.43-.73c-.14-.17.06-.15.12-.21l.29-.49a1.45,1.45,0,0,1,.09-.22,11.27,11.27,0,0,0,.93-6.19,12.84,12.84,0,0,0-.28-1.4C24.5,12.18,24.53,12.05,24.54,11.93ZM4.3,19.44a.2.2,0,0,1,0-.08s0-.05,0,0,0,0,0,0A.2.2,0,0,1,4.3,19.44Zm15.28.07h0a.15.15,0,0,1-.12.1h0a.27.27,0,0,1-.32,0h-.05a.61.61,0,0,1-.27-.41H18.4c-.17.13-.17.41-.42.47l-.08,0,.08,0h-.32v1.53a3.73,3.73,0,0,1,1.56-.08c.2,0,.26.18.26.34a.32.32,0,0,1-.28.36c-.25,0-.28.15-.27.35s0,.56,0,.85-.07.42-.42.45c-.13,0-.27,0-.32-.16h0a2.86,2.86,0,0,1-.05-.88,1.4,1.4,0,0,1,0-.29c0-.21,0-.34-.28-.31,0,0-.06,0-.09-.05l-.11-.05v1.73c0,.2,0,.29-.26.28a2,2,0,0,0-.6,0c-.15,0-.06-.13-.09-.2h-.07c-.05.08-.07.17-.21.17H10.22c-.1,0-.06-.18-.17-.22s0,.22-.15.22-.26-.07-.26-.2c0-.55,0-1.1,0-1.69.2.17.17.46.42.52v-.1a2.56,2.56,0,0,1-.42-.78V21.4h0v-9l0-.22a.17.17,0,0,1,0-.15.16.16,0,0,1-.09-.24A1.48,1.48,0,0,0,9.63,11V5.34c0-.12.06-.12.15-.12h2.58a1,1,0,0,0,.51-.08.24.24,0,0,1,.35.13h.31c.08-.08.13,0,.17,0a.66.66,0,0,1,.43,0c.92.12,1.85,0,2.78,0h.55c.13,0,.21,0,.2.18a3.46,3.46,0,0,1-.1,1.24h0l.1,0c.2-.07.39-.13.53.11h0c.11.06.1.17.1.27,0,.42,0,.84,0,1.26V8.4h0a.35.35,0,0,1,.21.1c.09,0,.14-.07.2-.1h0c0-.08,0-.16,0-.24a.26.26,0,0,1,0-.08V7c-.07-.1,0-.15.05-.21h0c.14-.24.34-.18.53-.11h0a.22.22,0,0,1,.16.24c0,.48,0,1,0,1.43a.33.33,0,0,1-.1.24h0a.52.52,0,0,1-.37.42h0a1.22,1.22,0,0,1-1.43-.16h0v2a1.18,1.18,0,0,1,1.27-.64.58.58,0,0,1,.48.26h0l.05.11a.26.26,0,0,1,0,.32l-.06.1c0,.09-.11.14-.21.06a.19.19,0,0,1-.16,0L18.67,11l-.22.16c-.06.06,0,.14-.05.21v.37c0,.16.1.24.21.32L19,12h0c.14-.1.28-.16.41,0a.48.48,0,0,1,0,.58c-.36.34-1.39.36-1.65-.27a1.61,1.61,0,0,1-.12-1.12h0v-.1a.43.43,0,0,1,0-.05.13.13,0,0,0-.09.12,3.21,3.21,0,0,0,.08,1.11,1.47,1.47,0,0,1,0,.47V13.9h.11l.1-.06h0a.26.26,0,0,1,.32,0c.21.08.22.26.22.46s-.06.28.15.29.21-.13.22-.29c0-.37.1-.47.41-.47s.34.1.34.36c0,.52,0,1,0,1.56,0,.15,0,.32-.2.35s-.42.08-.5-.2a.47.47,0,0,1,0-.35.29.29,0,0,0-.17-.29c-.18,0-.22.09-.22.27s0,.45-.2.58h0a.27.27,0,0,1-.32,0h-.05l-.16-.05v2.75l.16-.26a8.8,8.8,0,0,1,.36-1,.39.39,0,0,1,.44-.25.45.45,0,0,1,.45.3c.2.53.33,1.09.58,1.6A.23.23,0,0,1,19.58,19.51Zm-1.29-6.28c-.07,0-.12,0-.2,0C18.18,13.14,18.23,13.23,18.29,13.23Z"/><polygon class="cls-1" points="19.14 8.93 19.14 8.92 19.13 8.92 19.14 8.93"/><polygon class="cls-1" points="10.13 12.63 10.13 12.63 10.13 12.63 10.13 12.63"/><polygon class="cls-1" points="16.51 11.51 16.51 11.51 16.51 11.51 16.51 11.51"/><path class="cls-1" d="M16.44,11.79v0h0Z"/><polygon class="cls-1" points="16.39 23.2 16.39 23.2 16.39 23.2 16.39 23.2"/><polygon class="cls-1" points="16.6 11.57 16.6 11.57 16.6 11.57 16.6 11.57"/><polygon class="cls-1" points="16.51 11.51 16.5 11.51 16.51 11.51 16.51 11.51"/><path class="cls-1" d="M10.1,12.63h0S10.08,12.6,10.1,12.63Z"/><path class="cls-1" d="M10.48,11.73a0,0,0,0,1,0,0v0Z"/><path class="cls-14" d="M8.6,25c0,.09.33.39.42.34a.55.55,0,0,1,.59.06.51.51,0,0,0,.4.05L8.78,24.8C8.77,24.91,8.62,24.86,8.6,25Z"/><path class="cls-15" d="M13.22,26.79a2.29,2.29,0,0,0-.78.09c.32.05.65.08,1,.1C13.43,26.85,13.37,26.79,13.22,26.79Z"/><path class="cls-16" d="M23.05,21.5c.11-.16.46-.11.42-.43,0,0,.07-.05.09,0s.11,0,.07-.09a1.09,1.09,0,0,1,0-.26h0l-.09.1Z"/><path class="cls-16" d="M23.58,20.66v0c.34-.09.4-.17.33-.46a.8.8,0,0,1,0-.15l-.29.49Z"/><path class="cls-17" d="M12.85,4.12s0,0,0,0c-.2,0-.4,0-.6,0s-.37,0-.47.2l.67-.1A.82.82,0,0,1,12.85,4.12Z"/><path class="cls-18" d="M25.75,13.9c0-.2-.06-.4-.09-.59A.46.46,0,0,0,25.75,13.9Z"/><path class="cls-19" d="M6.4,6.29a.2.2,0,0,0-.05.16c.19,0,.21.3.43.26l-.23-.37A.1.1,0,0,0,6.4,6.29Z"/><polygon class="cls-19" points="6.78 6.71 6.78 6.71 6.78 6.71 6.78 6.71"/><path class="cls-16" d="M22.13,7.33a.08.08,0,0,0,.05-.14c-.05-.08-.13-.06-.18,0a.15.15,0,0,1-.2,0,1.57,1.57,0,0,1,.3.33C22.14,7.49,21.94,7.39,22.13,7.33Z"/><path class="cls-20" d="M22.1,22.67l-.49.52A.7.7,0,0,0,22.1,22.67Z"/><path class="cls-21" d="M18.93,25.1a1.27,1.27,0,0,0-.44.21c.19,0,.37,0,.44-.21Z"/><path class="cls-22" d="M8.16,5.82h0a1.58,1.58,0,0,0,.42-.27c-.19,0-.36.06-.42.27Z"/><path class="cls-23" d="M4.66,9.67a.73.73,0,0,0-.17.31C4.56,9.89,4.87,9.92,4.66,9.67Z"/><path class="cls-24" d="M3.32,16.44a1.59,1.59,0,0,0,.06.38C3.49,16.67,3.54,16.54,3.32,16.44Z"/><path class="cls-21" d="M19.34,24.88h0a1.3,1.3,0,0,0-.42.22h0a.38.38,0,0,0,.41-.22Z"/><path class="cls-25" d="M4.23,19.72h0a1.38,1.38,0,0,0,.21.44.45.45,0,0,0-.2-.44Z"/><path class="cls-26" d="M12.77,26.15h0a.86.86,0,0,0-.39,0C12.48,26.3,12.64,26.13,12.77,26.15Z"/><path class="cls-27" d="M20,5.76,20.3,6A.27.27,0,0,0,20,5.76Z"/><path class="cls-18" d="M25.62,13l0-.23h-.17C25.55,12.82,25.58,12.92,25.62,13Z"/><path class="cls-25" d="M4.24,19.71c.09-.12.08-.21-.1-.21a.4.4,0,0,0,.09.21h0Z"/><polygon class="cls-19" points="6.78 6.71 6.78 6.71 6.78 6.71 6.78 6.71"/><path class="cls-19" d="M6.78,6.71v.21A.74.74,0,0,0,7,6.72C6.93,6.71,6.85,6.75,6.78,6.71Z"/><path class="cls-28" d="M24.53,11.89a.63.63,0,0,0-.1-.29,2.61,2.61,0,0,0,0,.28C24.44,12,24.49,11.91,24.53,11.89Z"/><path class="cls-29" d="M12.85,4.12h0a.18.18,0,0,0,.27,0h-.25s0,0,0,0Z"/><path class="cls-16" d="M21.58,7a1,1,0,0,1,.21.2A.24.24,0,0,0,21.58,7Z"/><path class="cls-16" d="M21.25,6.71a.73.73,0,0,1,.22.21A.23.23,0,0,0,21.25,6.71Z"/><path class="cls-28" d="M24.63,12.26a.74.74,0,0,0-.09-.33C24.53,12.05,24.5,12.18,24.63,12.26Z"/><path class="cls-21" d="M19.34,24.88h0c.07,0,.23.13.17-.1a.23.23,0,0,0-.17.1Z"/><path class="cls-25" d="M4,19.23a.39.39,0,0,0,.08.22C4.19,19.34,4.1,19.29,4,19.23Z"/><path class="cls-30" d="M20,24.46h0a.23.23,0,0,0-.16.11c.06,0,.21.08.16-.11Z"/><path class="cls-22" d="M8.16,5.82h0c-.11,0-.2,0-.22.15a.54.54,0,0,0,.22-.15Z"/><path class="cls-30" d="M20,24.46h0c.08,0,.15,0,.17-.11a.28.28,0,0,0-.17.11Z"/><path class="cls-23" d="M4.76,9.51a.21.21,0,0,0-.1.16C4.74,9.64,4.82,9.62,4.76,9.51Z"/><path class="cls-27" d="M20.45,6.08a.28.28,0,0,0,.17.11C20.61,6.09,20.54,6.07,20.45,6.08Z"/><path class="cls-31" d="M16.39,19.16v0a0,0,0,0,0,0,0Z"/><path class="cls-1" d="M17.66,19.6c-.21-.18-.21-.3,0-.63V16.06h0V12.74a1.47,1.47,0,0,0,0-.47,3.21,3.21,0,0,1-.08-1.11.13.13,0,0,1,.09-.12V8.88h0V8.83a.91.91,0,0,1-.21-.63c0-.4,0-.8,0-1.2a.26.26,0,0,1,.13-.24h0a3.46,3.46,0,0,0,.1-1.24c0-.14-.07-.19-.2-.18h-.55c-.93,0-1.86.07-2.78,0a.66.66,0,0,0-.43,0,3.14,3.14,0,0,0,0,1.26h2.62a.39.39,0,0,1,.34.11c.06,0,.13,0,.1.12a.84.84,0,0,0,.06.62c.11,0,.1.13.1.21v.61c0,.15,0,.29-.23.27-.08,0-.2.19-.27.31a1.23,1.23,0,0,0-.08.29c.07.08.05.18.05.28v1.5a.15.15,0,0,0,.05.12c.23,0,.47-.13.68.06a1.36,1.36,0,0,1,0,.89l-.1.06v.1c.18.16,0,.32,0,.48h0c-.14.1-.32,0-.47.1a3,3,0,0,0-.17,1.11c0,1.73,0,3.45,0,5.18h0c.13.35.11.72.26,1.06,0,0,0,0,0,0s0,0,0,0c0,.34,0,.68,0,1a.35.35,0,0,0,.1.31c.52,0,.53,0,.27.48a.93.93,0,0,1-.26.39l0,0h0l0,0a.74.74,0,0,1-.07.21.66.66,0,0,0,0,.68.33.33,0,0,1-.06.42c0,.07-.06.24.09.2a2,2,0,0,1,.6,0c.22,0,.27-.08.26-.28V21.72a.7.7,0,0,1,0-.53V19.6Z"/><path class="cls-1" d="M10,12.15c.14-.15.23-.33.38-.47a.37.37,0,0,0,.1-.31c0-.74,0-1.47,0-2.21,0-.17-.15-.28-.1-.45-.29-.16-.36-.47-.5-.73s.17-.09.27-.11c-.15-.24,0-.49,0-.74a.78.78,0,0,1,0-.21h0q-.21-.11,0-.21c0-.13.15-.1.24-.1.84,0,1.67,0,2.51,0,.2,0,.29-.05.27-.27s0-.46,0-.69h0c0-.32-.24-.32-.49-.32h-3V11h0l.2-.07a.36.36,0,0,1,.47.16.42.42,0,0,1-.2.54.2.2,0,0,1-.18.21L9.89,12c-.06.1-.13.09-.21,0h0a.17.17,0,0,0,0,.15C9.78,12.1,9.89,12.17,10,12.15Z"/><polygon class="cls-32" points="10.18 7.84 10.18 7.84 10.18 7.84 10.18 7.84"/><path class="cls-1" d="M10.15,20.89a6.33,6.33,0,0,1,.21-1.74,4.56,4.56,0,0,0,.05-1c0-1.49,0-3,0-4.46a2.07,2.07,0,0,0-.14-.74c0-.14-.11-.19-.24-.18a.21.21,0,0,1-.2-.05l-.05,0c-.08-.07,0-.22-.16-.26v9h0C10.24,21.4,10.17,21.47,10.15,20.89Z"/><path class="cls-33" d="M13,6.7H10.48c-.2,0-.27,0-.27.26a3.77,3.77,0,0,1,0,.89h0s0,.06,0,.09-.18.13-.08.27.2.34.3.51h0a.55.55,0,0,1,.17.42v2.3a.61.61,0,0,1-.08.27,0,0,0,0,0,0,0h0l.05-.05a.61.61,0,0,0,.11-.21c-.09-.21,0-.39.05-.58l-.11-.06c-.1-.16,0-.34-.05-.51,0-.35,0-.71,0-1.06a.38.38,0,0,0,0-.46.51.51,0,0,1-.1-.29c-.27-.18-.29-.31-.17-.57a1.15,1.15,0,0,0,0-.61c-.07-.4.06-.57.47-.56a14.37,14.37,0,0,1,2,0c.09,0,.18,0,.25.07s.14.06.16,0c.11-.23.29-.16.45-.1a1.58,1.58,0,0,0,.65,0H16a.43.43,0,0,1,.46.47,1.53,1.53,0,0,1-.05.64c0,.08,0,.1.06.12a.2.2,0,0,1,.09.2l.13,0c.06,0,.07-.1.08-.16-.19,0-.24-.07-.23-.25s0-.51,0-.76-.05-.29-.28-.28c-.83,0-1.67,0-2.5,0-.21,0-.29-.06-.28-.28,0-.38,0-.75,0-1.13h-.25c0,.38,0,.77,0,1.15C13.27,6.65,13.2,6.7,13,6.7Zm.35-1.2h.05v1h-.05Z"/><path class="cls-34" d="M16.4,23.2h0c0,.15,0,.3-.22.32-1.68.13-3.37.09-5.06.1-.42,0-.53-.19-.74-.53-.09,0-.11,0-.1.09a.37.37,0,0,1-.12.3l0,0h0c.09.05.2.09.24.2h6c.14,0,.16-.09.21-.17l.08-.14A.87.87,0,0,0,16.4,23.2Z"/><path class="cls-35" d="M17.66,15.91l.16.2h.37c.24-.13.21-.37.2-.58s0-.27.22-.27.22.06.21.22v.42c.08.28.31.22.5.2s.19-.2.2-.35c0-.52,0-1,0-1.56,0-.26-.09-.35-.34-.36s-.41.1-.41.47c0,.16,0,.29-.22.29s-.16-.17-.15-.29,0-.38-.22-.46h-.32l-.1.06-.11.21Zm.24-2c.13,0,.31-.09.35.15s0,.35.05.53a.55.55,0,0,0,.28.07c.22,0,.32-.06.3-.3a.64.64,0,0,1,0-.36c.07-.17.21-.12.33-.11a.18.18,0,0,1,.19.18c0,.6,0,1.2,0,1.8,0,0,0,0,0,.05h0A.31.31,0,0,1,19,16c-.13,0-.12-.18-.13-.3v-.21c0-.2,0-.33-.27-.33s-.33.12-.31.34a1.21,1.21,0,0,1,0,.19c0,.35-.16.43-.49.26h0c-.1-.13,0-.28,0-.42V14.21C17.76,14.1,17.73,14,17.9,14Z"/><path class="cls-36" d="M10.1,23.25a.86.86,0,0,0,0-.9c-.25-.06-.22-.35-.42-.52,0,.59,0,1.14,0,1.69,0,.13.12.2.26.2s.15-.11.15-.22S9.87,23.29,10.1,23.25Z"/><path class="cls-37" d="M17.66,21.72l.11.05a1.47,1.47,0,0,0,.21,0c.16,0,.21.06.21.22V23.3l.32.16c.35,0,.42-.1.42-.45s0-.57,0-.85,0-.33.27-.35a.32.32,0,0,0,.28-.36c0-.16-.06-.34-.26-.34a3.73,3.73,0,0,0-1.56.08A.7.7,0,0,0,17.66,21.72Zm.1-.44a.07.07,0,0,1,.09,0h0a5,5,0,0,1,1.39,0,.3.3,0,0,1,.12.32c0,.15-.17.14-.28.14s-.25.1-.25.28c0,.35,0,.71,0,1.06,0,.1,0,.22-.11.26s-.33.12-.43-.09h0a4.29,4.29,0,0,1,0-1c0-.43,0-.43-.39-.53h0c-.05,0-.09,0-.11,0A.32.32,0,0,1,17.76,21.28Z"/><path class="cls-38" d="M17.45,8.2a.91.91,0,0,0,.21.63V8.7a.48.48,0,0,1-.07-.29,7,7,0,0,1,0-1.45c0-.2.26-.24.52-.1a2.92,2.92,0,0,1,.05.83c0,.17,0,.34,0,.5s.16.42.38.41.35-.14.36-.4,0-.76,0-1.13c0-.11,0-.25.14-.26a.31.31,0,0,1,.28,0l.09.07h.05l-.05-.17h0a.84.84,0,0,0-.53.11.27.27,0,0,1-.05.21v1a1.64,1.64,0,0,1,0,.23s0,.06,0,.08h0c-.06,0-.11.1-.2.1a.18.18,0,0,1-.21-.1h0V8.35c-.11-.16-.05-.34-.06-.51a5,5,0,0,0,0-1h0a.81.81,0,0,0-.53-.11l-.1,0a.26.26,0,0,0-.13.24C17.44,7.4,17.44,7.8,17.45,8.2Z"/><path class="cls-39" d="M10.22,20.86a4.37,4.37,0,0,1,.19-1.48h0a5.34,5.34,0,0,0,.08-1.26c0-1.3,0-2.6,0-3.9a4.45,4.45,0,0,0-.18-1.58c-.14-.14-.34,0-.48-.11a.22.22,0,0,1-.06-.23c0-.14.22,0,.24-.14h0c-.1,0-.21-.05-.31,0l0,.22c.12,0,.08.19.16.26h.31s0,0,0,0h0v0H9.84a.21.21,0,0,0,.2.05c.13,0,.2,0,.24.18a2.07,2.07,0,0,1,.14.74c0,1.49,0,3,0,4.46a4.56,4.56,0,0,1-.05,1,6.33,6.33,0,0,0-.21,1.74c0,.58.09.51-.52.51h0v.07C10.22,21.46,10.23,21.46,10.22,20.86Z"/><path class="cls-40" d="M13.17,5.65h0c0,.23,0,.46,0,.69s-.07.27-.27.27c-.84,0-1.67,0-2.51,0-.09,0-.2,0-.24.1v.21h0a.78.78,0,0,0,0,.21c.06.25-.13.5,0,.74v.06s0-.06,0-.09h0a3.77,3.77,0,0,0,0-.89c0-.21.07-.26.27-.26H13c.19,0,.26,0,.26-.26,0-.38,0-.77,0-1.15h-.06C13.13,5.4,13.18,5.53,13.17,5.65Z"/><path class="cls-41" d="M13.17,5.65h0c0-.12,0-.25.05-.37a.24.24,0,0,0-.35-.13,1,1,0,0,1-.51.08H9.78c-.09,0-.16,0-.15.12h3C12.93,5.33,13.14,5.33,13.17,5.65Z"/><path class="cls-42" d="M10.05,22.14v0c-.1-.15-.28-.33-.26-.46s.33,0,.48-.14.07-.11.07-.18,0,0,0,0a2,2,0,0,1-.08.22,1,1,0,0,0,0-.23,12,12,0,0,1,.1-1.9h0a4.37,4.37,0,0,0-.19,1.48c0,.6,0,.6-.59.61a2.56,2.56,0,0,0,.42.78v-.11Z"/><path class="cls-43" d="M19.07,17.58a.45.45,0,0,0-.45-.3.39.39,0,0,0-.44.25l.07,0,.14-.12h0a.43.43,0,0,1,.4,0,.42.42,0,0,1,.24.32c.18.48.35,1,.52,1.46a.53.53,0,0,1,0,.28l0,0h0a.23.23,0,0,0,.07-.33C19.4,18.67,19.27,18.11,19.07,17.58Z"/><path class="cls-44" d="M19.46,12.23c0,.25-.13.4-.43.45h-.15a.67.67,0,0,1-.64-.06c-.15,0-.24-.18-.36-.27l-.11,0c.26.63,1.29.61,1.65.27a.48.48,0,0,0,0-.58c-.13-.16-.27-.1-.41,0C19.22,12,19.44,11.93,19.46,12.23Z"/><path class="cls-45" d="M17.66,11.09h0l.07-.15A1,1,0,0,1,19,10.4a.27.27,0,0,1,.23.11l.05.06.09-.06h0a.58.58,0,0,0-.48-.26,1.18,1.18,0,0,0-1.27.64V11A.43.43,0,0,0,17.66,11.09Z"/><path class="cls-46" d="M18.41,12c.16.21.39.17.61.12s.26-.19.35,0a.32.32,0,0,1-.18.43l-.16.1c.3,0,.44-.2.43-.45S19.22,12,19,12h0a.35.35,0,0,1-.43.05c-.11-.08-.22-.16-.21-.32a.35.35,0,0,1,0-.37c0-.07,0-.15.05-.21V11A.92.92,0,0,0,18.41,12Z"/><path class="cls-47" d="M10.1,23.25c-.08.1,0,.17.05.23a.37.37,0,0,0,.12-.3c0-.07,0-.12.1-.09.06-.27-.12-.5-.12-.76,0-.09-.1-.16-.2-.19v.21A.86.86,0,0,1,10.1,23.25Z"/><path class="cls-48" d="M19,19.38c-.07-.34-.32-.32-.58-.3a.22.22,0,0,0-.22.15c-.16.34-.2.36-.56.26v.11h0a1.75,1.75,0,0,1,.24,0l.08,0c.25-.06.25-.34.42-.47a.4.4,0,0,1,.42,0h0a.61.61,0,0,0,.27.41s0,0,.06-.06S19,19.44,19,19.38Z"/><path class="cls-49" d="M19.13,8.93h0a1.39,1.39,0,0,1-.88.15.93.93,0,0,1-.58-.37v.18A1.22,1.22,0,0,0,19.09,9h0Z"/><path class="cls-50" d="M17.67,18.87v.26h0v.05h0c.23-.53.4-1.08.58-1.63l-.07,0a8.8,8.8,0,0,0-.36,1C17.8,18.67,17.81,18.81,17.67,18.87Z"/><path class="cls-51" d="M16.77,23.15a.66.66,0,0,1,0-.68.74.74,0,0,0,.07-.21l0,0c-.26.25-.2.58-.2.88,0,.09.07.12.13.16s.06.1,0,.14l-.08.14h.07A.33.33,0,0,0,16.77,23.15Z"/><path class="cls-52" d="M19.32,10.57a.3.3,0,0,1,0,.38c-.1.13-.22,0-.33,0s-.41-.11-.56.11v.11l.22-.16a.25.25,0,0,1,.36.06.19.19,0,0,0,.16,0L19.4,11l.06-.1v-.32l-.05-.11h0Z"/><path class="cls-53" d="M19.45,6.92c.1.13.06.27.06.41a6.33,6.33,0,0,1-.05,1.23v.06h0a.33.33,0,0,0,.1-.24c0-.47,0-1,0-1.43a.22.22,0,0,0-.16-.24l.05.17Z"/><path class="cls-54" d="M18,21.77a1.47,1.47,0,0,1-.21,0s.06.05.09.05c.24,0,.3.1.28.31a1.4,1.4,0,0,0,0,.29,2.86,2.86,0,0,0,.05.88V22C18.19,21.83,18.14,21.76,18,21.77Z"/><path class="cls-53" d="M18.3,8.35c0-.42,0-.84,0-1.26,0-.1,0-.21-.1-.27a5,5,0,0,1,0,1C18.25,8,18.19,8.19,18.3,8.35Z"/><path class="cls-55" d="M9.68,11h0a1.48,1.48,0,0,1-.09.72.16.16,0,0,0,.09.24h0Z"/><path class="cls-56" d="M17.67,11.42v-.23h0a1.61,1.61,0,0,0,.12,1.12l.11,0A2.05,2.05,0,0,1,17.67,11.42Z"/><polygon class="cls-57" points="13.53 5.29 13.53 5.29 13.53 5.29 13.53 5.29"/><path class="cls-57" d="M13.59,5.74c0,.21,0,.43,0,.65s0,.18.11.21a3.14,3.14,0,0,1,0-1.26c0-.07-.09-.13-.17,0h0C13.65,5.42,13.58,5.59,13.59,5.74Z"/><path class="cls-58" d="M19.36,8.56c0,.16-.14.25-.22.36h0l0,.11h0a.52.52,0,0,0,.37-.42V8.56Z"/><path class="cls-59" d="M18.61,15.27a.29.29,0,0,1,.17.29.47.47,0,0,0,0,.35v-.42C18.83,15.33,18.77,15.25,18.61,15.27Z"/><path class="cls-29" d="M12.85,4.12a.82.82,0,0,0-.38,0c.14,0,.29.21.38,0Z"/><path class="cls-60" d="M10.18,23.52l0,0c-.1-.06-.13-.13-.05-.23-.23,0-.1.16,0,.25s.07.18.17.22l0-.2Z"/><path class="cls-53" d="M19.35,6.71c-.19-.07-.39-.13-.53.11h0A.84.84,0,0,1,19.35,6.71Z"/><path class="cls-53" d="M17.66,6.71a.81.81,0,0,1,.53.11C18.05,6.58,17.86,6.64,17.66,6.71Z"/><path class="cls-43" d="M19.15,19.54h0l-.06.06h.37a.15.15,0,0,0,.12-.1l0,0A.82.82,0,0,1,19.15,19.54Z"/><path class="cls-47" d="M10.18,23.52h0l0,.2h.2C10.38,23.61,10.27,23.57,10.18,23.52Z"/><path class="cls-44" d="M19,12l-.43.05A.35.35,0,0,0,19,12Z"/><path class="cls-61" d="M18.67,11l.36.06A.25.25,0,0,0,18.67,11Z"/><path class="cls-62" d="M17.82,18.55l-.16.26v.06C17.81,18.81,17.8,18.67,17.82,18.55Z"/><path class="cls-63" d="M18.4,19.18h.42A.4.4,0,0,0,18.4,19.18Z"/><path class="cls-54" d="M18.19,23.3c0,.17.19.16.32.16l-.32-.16Z"/><path class="cls-52" d="M18.4,11.73v-.37A.35.35,0,0,0,18.4,11.73Z"/><path class="cls-64" d="M23.48,20.77l.09-.1h0l0-.1C23.54,20.62,23.34,20.6,23.48,20.77Z"/><path class="cls-1" d="M18.29,13.23c-.06,0-.11-.09-.2,0C18.17,13.26,18.22,13.28,18.29,13.23Z"/><path class="cls-65" d="M17.66,19.66H18l-.08,0a1.75,1.75,0,0,0-.24,0Z"/><path class="cls-53" d="M18.71,8.39s0-.05,0-.08a1.64,1.64,0,0,0,0-.23.26.26,0,0,0,0,.08c0,.08,0,.16,0,.24h0Z"/><path class="cls-53" d="M18.82,6.82h0c-.05.06-.12.11-.05.21a.27.27,0,0,0,.05-.21Z"/><path class="cls-59" d="M18.19,16.12h-.32A.27.27,0,0,0,18.19,16.12Z"/><path class="cls-59" d="M17.66,16.06h0l.16.05-.16-.2Z"/><path class="cls-63" d="M19.46,19.61h-.32A.27.27,0,0,0,19.46,19.61Z"/><path class="cls-61" d="M19.46,10.62v.32A.26.26,0,0,0,19.46,10.62Z"/><path class="cls-59" d="M17.87,13.84h.32A.26.26,0,0,0,17.87,13.84Z"/><path class="cls-66" d="M17.7,11.09h0v.33A.61.61,0,0,0,17.7,11.09Z"/><path class="cls-61" d="M19.4,11l-.21.06C19.29,11.18,19.35,11.13,19.4,11Z"/><path class="cls-59" d="M17.77,13.9h-.11v.21Z"/><path class="cls-53" d="M18.51,8.5a.35.35,0,0,0-.21-.1h0A.18.18,0,0,0,18.51,8.5Z"/><path class="cls-25" d="M4.27,19.36a.2.2,0,0,0,0,.08.2.2,0,0,0,0-.08s0,0,0,0S4.27,19.33,4.27,19.36Z"/><path class="cls-67" d="M16.63,12a.31.31,0,0,0-.18-.16h0v.07h0a.58.58,0,0,0,.17.21c.09.05.14.18.28.16s.13.05.12.14,0,.17-.15.17l-.36,0a5.35,5.35,0,0,0-.21,2c0,1.38,0,2.75,0,4.13a1.09,1.09,0,0,0,.08.47V19h0c0-1.73,0-3.45,0-5.18a3,3,0,0,1,.17-1.11c.12-.2.32-.05.47-.1h0c0-.16.18-.32,0-.48h0A.35.35,0,0,1,16.63,12Z"/><path class="cls-68" d="M16.82,7.66v.21h0V8c0,.06,0,.13-.08.16a1,1,0,0,1,0,.1,2.15,2.15,0,0,0-.46,1.64c0,.48,0,1,0,1.44,0,.09,0,.18,0,.26h.06l.05-.1h0c-.08-.09-.05-.2-.05-.31v-2a1.23,1.23,0,0,1,.08-.29c.07-.12.19-.32.27-.31.25,0,.23-.12.23-.27V7.66c0-.08,0-.18-.1-.21S16.82,7.59,16.82,7.66Z"/><path class="cls-1" d="M13.81,6.7c.83,0,1.67,0,2.5,0,.23,0,.29.06.28.28s0,.51,0,.76,0,.27.23.25V7.87h-.11A2.82,2.82,0,0,1,16.66,7a2.81,2.81,0,0,1,0-.29.39.39,0,0,0-.34-.11H13.7c-.12,0-.11-.12-.11-.21s0-.44,0-.65.06-.32-.06-.45h0c0,.38,0,.75,0,1.13C13.52,6.64,13.6,6.7,13.81,6.7Z"/><path class="cls-51" d="M16.39,19.16v0c0,.26.13.51.12.77a3.24,3.24,0,0,1,.06,1.12c0,.41,0,.39.38.37.24,0,.25.06.13.25a2.43,2.43,0,0,0-.28.53l0,0a.93.93,0,0,0,.26-.39c.26-.45.25-.46-.27-.48-.16,0-.15-.1-.15-.21v-1.1c-.15-.34-.13-.71-.26-1.06h0Z"/><path class="cls-67" d="M16.39,11.47l.12,0h0l0-.16c0-.17,0-.3.24-.29s.37,0,.33.29,0,.36,0,.55S17,12,16.88,12s.09.07.15.07h0l.1-.06V11.1c-.21-.19-.45-.11-.68-.06l-.06.43Z"/><path class="cls-69" d="M16.39,11.47l.06-.43a.15.15,0,0,1-.05-.12V9.42c0-.1,0-.2-.05-.28v2C16.34,11.27,16.31,11.38,16.39,11.47Z"/><path class="cls-69" d="M16.88,12h0a0,0,0,0,1,0,0,.87.87,0,0,1-.34-.44h0l-.12,0-.05.1c0,.07.11.13.1.22h0a.31.31,0,0,1,.18.16.35.35,0,0,0,.4.19h0v-.1h0C17,12.05,16.91,12.05,16.88,12Z"/><path class="cls-70" d="M16.71,7.87c0-.08,0-.18.11-.21s-.08-.14,0-.21a.84.84,0,0,1-.06-.62c0-.14,0-.11-.1-.12a2.81,2.81,0,0,0,0,.29A2.82,2.82,0,0,0,16.71,7.87Z"/><path class="cls-71" d="M16.81,21.39a.35.35,0,0,1-.1-.31c0-.34,0-.68,0-1,0,0,0,0,0,0s0,0,0,0v1.1C16.66,21.29,16.65,21.4,16.81,21.39Z"/><path class="cls-72" d="M17.13,11.1V12A1.36,1.36,0,0,0,17.13,11.1Z"/><path class="cls-65" d="M17.66,19.5c-.18-.12-.05-.25,0-.37h0V19c-.21.33-.21.45,0,.63v-.11h0Z"/><path class="cls-73" d="M16.56,12.73c.15-.07.33,0,.47-.1h0C16.88,12.68,16.68,12.53,16.56,12.73Z"/><path class="cls-74" d="M10.15,11.67a1,1,0,0,0,.11-.2c0-.12.08-.29,0-.37s-.27,0-.41,0l0,0a2.07,2.07,0,0,0,0,.86s0,0,.08,0l.08-.09A.52.52,0,0,1,10.15,11.67Z"/><path class="cls-75" d="M10.46,11.72v0a.61.61,0,0,0,.08-.27V9.13a.55.55,0,0,0-.17-.42h0c-.05.17.1.28.1.45,0,.74,0,1.47,0,2.21a.37.37,0,0,1-.1.31c-.15.14-.24.32-.38.47h0l.15-.06A1.57,1.57,0,0,1,10.46,11.72Z"/><path class="cls-75" d="M9.89,12s-.07,0-.08,0a2.07,2.07,0,0,1,0-.86l0,0c.14,0,.3-.05.41,0s.06.25,0,.37a1,1,0,0,1-.11.2h0a.42.42,0,0,0,.2-.54A.36.36,0,0,0,9.88,11l-.2.07v1C9.76,12.06,9.83,12.07,9.89,12Z"/><path class="cls-76" d="M10.38,8.71c-.1-.17-.19-.35-.3-.51S10,8,10.16,7.93V7.87c-.1,0-.33,0-.27.11s.21.57.5.73Z"/><path class="cls-76" d="M10.15,6.71q-.21.11,0,.21h0Z"/><path class="cls-75" d="M10.15,11.67a.52.52,0,0,0-.18.21.2.2,0,0,0,.18-.21Z"/><path class="cls-77" d="M10.13,12.68v0H9.79l.05,0Z"/><path d="M12.7,8.62l0,0,0,0Z"/><path d="M16.39,23.2c-.07,0-.11-.06-.09-.13s.12-.08.2-.08v-.53c-.18-.09-.11-.24-.07-.36s.09-.14,0-.23-.16.26-.24.12-.35-.28-.23-.55l.22.07c.07,0,.15,0,.17-.06a.13.13,0,0,0-.14-.15h-.07c-.08,0-.18,0-.19-.1s.08-.11.16-.12.21-.13.35-.1a4.25,4.25,0,0,0-.05-1l-.06,0s0,.09,0,.11c-.29.19-.18.5-.2.77a.49.49,0,0,1,0,.1.57.57,0,0,1-.06-.45c0-.23-.15-.51.17-.68.06,0-.08-.22-.11-.22-.33,0-.18-.29-.15-.36a2.15,2.15,0,0,0,.09-.75c-.13,0-.11-.15-.11-.24,0-1.51,0-3,0-4.54,0-.4,0-.79,0-1.19a.23.23,0,0,1,.07-.2c.06.05.08.21.2.11s0-.16,0-.22a.59.59,0,0,1-.17-.71A.87.87,0,0,0,16,11a7.8,7.8,0,0,1,0-1.6c0-.58-.06-1.15,0-1.72,0-.17-.09-.2-.23-.2H13.46c-.08,0-.24.06-.17-.15,0,0-.06-.06-.1-.06s-.14,0-.15.07-.16.14-.26.14H11.17c-.21,0-.29.06-.28.27s0,.2-.07.26-.05.11,0,.15a.3.3,0,0,1,.07.32,3.63,3.63,0,0,0-.05.93,5.37,5.37,0,0,0,.06.67,3.46,3.46,0,0,1-.16.84c0,.19-.14.37-.05.58.06,0,.15,0,.17.06a.23.23,0,0,1-.07.19c-.09.09-.13-.05-.21,0l-.05.05c-.07.18-.25.3-.29.51a.28.28,0,0,0,.08.28c.06.08.13.11.23,0,0,.15-.1.23-.08.35s0,.19.16.08.08-.12.14,0,.05.19,0,.22-.16.16-.08.3a.43.43,0,0,1,0,.23c0,1.71,0,3.41,0,5.12a2,2,0,0,1-.13.6,7.17,7.17,0,0,0-.09,1.3,3.14,3.14,0,0,1-.12.61s0,0,0,0,0,.14-.07.18-.44-.07-.48.14.16.31.26.46v0h0c.1,0,.2.1.2.19,0,.26.18.49.12.76.21.34.32.54.74.53,1.69,0,3.38,0,5.06-.1.26,0,.22-.17.22-.32ZM10.47,12.41c-.08,0-.07-.07-.08-.11a.14.14,0,0,1,.12-.15c.08,0,.06.06.07.1S10.57,12.41,10.47,12.41Zm.38-1.19a.07.07,0,0,1,0-.09.09.09,0,0,1,0,0s0,.05,0,.08Zm0,1s0,0,0-.07a.11.11,0,0,1,0-.09s.05,0,.05.05S10.9,12.25,10.85,12.27Zm1.09-1.88s-.08,0-.08-.08.05-.1.12-.11.1,0,.1.06S12,10.38,11.94,10.39Zm.16.29c-.09,0,0-.13,0-.2a.53.53,0,0,0,0-.18,1.62,1.62,0,0,1-.11-.58c-.13-.09-.25-.18,0-.26V9.14c-.06,0-.12,0-.18-.06s.15-.05.18.06h.11a.58.58,0,0,0,0-.18c0-.07-.12-.16,0-.22s.17,0,.19.14a.49.49,0,0,1,.36-.28c-.06-.23.17-.25.27-.27a1.44,1.44,0,0,1,1.23.27h0a1.17,1.17,0,0,1,.33.37l0,0h0l0,0a1.36,1.36,0,0,1,.09,1.39l.23.34s.07.06,0,.1-.08,0-.12,0a.33.33,0,0,1-.15-.24c-.23.07-.29.32-.51.38h0c0,.09.09.05.14.08a.13.13,0,0,1,.06.14.1.1,0,0,1-.11.09H12.72a.12.12,0,0,1-.13-.11c0-.08,0-.11.11-.11s.09,0,.1-.09c-.24-.06-.34-.29-.53-.42C12.25,10.61,12.21,10.73,12.1,10.68Zm2.17,4.17a.09.09,0,0,1-.1.09c-.07,0-.09,0-.09-.1a.09.09,0,0,1,.09-.08C14.23,14.75,14.26,14.78,14.27,14.85Zm-.42-.14-.17-.12.05,0C13.8,14.55,13.84,14.59,13.85,14.71Zm-.44-.08c0,.18-.17.1-.27.11s-.23,0-.21-.11.17-.07.24-.1S13.42,14.49,13.41,14.63Zm-.65.25a.08.08,0,0,1-.16,0,.07.07,0,0,1,.07-.08Q12.78,14.79,12.76,14.88Zm-.11,4.23h1.58v.08C13.7,19.07,13.17,19.47,12.65,19.11ZM15,18.5c0,.08,0,.18-.05.23s-.12-.09-.16-.15l-.09-.14h0c-.13-.05-.09-.17-.09-.26v-2a.4.4,0,0,0-.06-.3h0v2.53c0,.07,0,.14,0,.21s0,.15-.1.16v.05c0,.12-.12.13-.21.13l-1.49,0c-.08,0-.18,0-.21-.11a.48.48,0,0,1-.1-.42.83.83,0,0,1,0-.78.19.19,0,0,0,0-.08v0l0-.1c0-.07-.08-.16-.06-.22.14-.36-.07-.74.09-1.1a1.77,1.77,0,0,0,0-.23,1.49,1.49,0,0,1,.8-1.09,1.07,1.07,0,0,1,1.11.66h0c.26.07.38.3.42.64a15,15,0,0,1,0,2.32c.19,0,.22-.09.22-.24,0-.7,0-1.4,0-2.13a.26.26,0,0,1,.1.22,14.56,14.56,0,0,1,0,1.87A1,1,0,0,0,15,18.5Zm1.09,4.9s-.08,0-.07-.06a.27.27,0,0,1,.11-.1s.05,0,.05.07A.08.08,0,0,1,16.08,23.4Zm.1-.73c0,.12,0,.25-.06.37,0-.13-.12-.27.06-.37a.27.27,0,0,1,.08-.21C16.28,22.58,16.3,22.64,16.18,22.67Z"/><polygon points="10.31 12.53 10.32 12.52 10.31 12.53 10.31 12.53"/><polygon points="14.06 10.82 14.06 10.82 14.06 10.82 14.06 10.82"/><path class="cls-78" d="M10.84,9.38a3.63,3.63,0,0,1,.05-.93.3.3,0,0,0-.07-.32c-.05,0-.08-.1,0-.15s.08-.17.07-.26.07-.28.28-.27h1.61c.1,0,.24,0,.26-.14s.09-.07.15-.07.11,0,.1.06c-.07.21.09.15.17.15h2.28c.14,0,.24,0,.23.2-.05.57,0,1.14,0,1.72A7.8,7.8,0,0,0,16,11a.87.87,0,0,1,0,.48.59.59,0,0,0,.17.71c.06.06.15.14,0,.22s-.14-.06-.2-.11a.23.23,0,0,0-.07.2c0,.4,0,.79,0,1.19,0,1.51,0,3,0,4.54,0,.09,0,.2.11.24s.05-.22.05-.33V13.7c0-.11,0-.23.05-.33h0c.12-.25.13-.56.33-.78h0c.06-.1.16-.07.25-.07s.17,0,.18-.12-.09-.07-.15-.09a.23.23,0,0,1-.18-.22.21.21,0,0,1-.16-.21.31.31,0,0,1-.18-.19h0c-.11,0-.09-.16-.09-.25V9.1c0-.32.25-.53.36-.8l.06-.11a.2.2,0,0,0-.09-.2c-.05,0-.1,0-.06-.12a1.53,1.53,0,0,0,.05-.64A.43.43,0,0,0,16,6.76H14.29a1.58,1.58,0,0,1-.65,0c-.16-.06-.34-.13-.45.1,0,.07-.11,0-.16,0s-.16,0-.25-.07a14.37,14.37,0,0,0-2,0c-.41,0-.54.16-.47.56a1.15,1.15,0,0,1,0,.61c-.12.26-.1.39.17.57,0-.07,0-.12.13-.09s0,0,0,0-.1,0-.16,0a.51.51,0,0,0,.1.29.38.38,0,0,1,0,.46,5,5,0,0,1,0,1c0,.18,0,.37,0,.55l.11.06a3.46,3.46,0,0,0,.16-.84A5.37,5.37,0,0,1,10.84,9.38Zm5.28,3.53a.05.05,0,0,1,0,0s0-.06.05,0l0,0S16.15,12.92,16.12,12.91ZM10.48,8.29s-.07,0-.07,0,0,0,.05,0,.08,0,.07.05Z"/><path class="cls-79" d="M16.18,9.1v2.34c0,.09,0,.2.09.25h0l0,0v-.09c-.07-.08,0-.17,0-.26,0-.48,0-1,0-1.44a2.15,2.15,0,0,1,.46-1.64,1,1,0,0,0,0-.1l-.13,0-.06.11C16.43,8.57,16.18,8.78,16.18,9.1Z"/><path class="cls-80" d="M10.32,12.52a.28.28,0,0,1-.08-.28c0-.21.22-.33.29-.51h-.07a1.57,1.57,0,0,0-.3.38c-.05.23-.22.22-.39.2a.22.22,0,0,0,.06.23h.49Z"/><path class="cls-78" d="M13.41,5.5h-.05v1h.05Z"/><path class="cls-80" d="M10.59,9.26c0,.35,0,.71,0,1.06,0,.17-.05.35.05.51,0-.18,0-.37,0-.55A5,5,0,0,0,10.59,9.26Z"/><path class="cls-80" d="M10.79,11.72a.23.23,0,0,0,.07-.19c0-.09-.11,0-.17-.06a.61.61,0,0,1-.11.21C10.66,11.67,10.7,11.81,10.79,11.72Z"/><path class="cls-81" d="M17,21.46c-.42,0-.36,0-.38-.37A3.24,3.24,0,0,0,16.51,20s-.05,0-.06,0a4.25,4.25,0,0,1,.05,1v.28c0,.31.05.35.35.32.09,0,.22,0,.13.12a6.06,6.06,0,0,1-.48.76V23l-.11.21h0a.87.87,0,0,1,.32.22c.07,0,.07-.09,0-.14s-.13-.07-.13-.16c0-.3-.06-.63.2-.88h0a2.43,2.43,0,0,1,.28-.53C17.2,21.52,17.19,21.45,17,21.46Z"/><polygon class="cls-82" points="19.39 15.96 19.39 15.96 19.39 15.96 19.39 15.96"/><path class="cls-82" d="M17.87,14.21c0-.12.06-.16.18-.15s.13.08.14.18-.06.38,0,.56H19c0-.24-.06-.5.06-.73h.26c.06.06.05.14.05.22v1.4a.32.32,0,0,1-.05.23h0l.09.05s0,0,0-.05c.06-.6,0-1.2,0-1.8a.18.18,0,0,0-.19-.18c-.12,0-.26-.06-.33.11s0,.27,0,.4,0,.27-.11.28-.38.13-.52-.09h0c-.11-.17,0-.35-.05-.53S18,14,17.9,14s-.14.15-.13.26h.1Z"/><path class="cls-83" d="M19,15.65c0-.66.13-.58-.65-.59-.15,0-.2.07-.19.21s0,.23,0,.34-.07.35-.31.29l-.07.07h0c.33.17.49.09.49-.26a1.21,1.21,0,0,0,0-.19c0-.22.05-.34.31-.34s.29.13.27.33v.21c0,.12,0,.25.13.3a.31.31,0,0,0,.38-.06h0l-.09-.05C19.09,15.94,19,15.86,19,15.65Z"/><path class="cls-84" d="M17.81,16h0l.07-.07c0-.56,0-1.12,0-1.69h-.1v1.33C17.86,15.67,17.81,15.82,17.81,16Z"/><polygon class="cls-85" points="18.3 14.63 18.3 14.63 18.3 14.63 18.3 14.63"/><path class="cls-85" d="M18.82,14.72c.14,0,.11-.17.11-.28s0-.27,0-.4a.64.64,0,0,0,0,.36c0,.24-.08.32-.3.3a.55.55,0,0,1-.28-.07h0C18.44,14.85,18.65,14.74,18.82,14.72Z"/><path class="cls-85" d="M18.3,14.63h0c0-.18.06-.36-.05-.53C18.26,14.28,18.19,14.46,18.3,14.63Z"/><path class="cls-83" d="M17.77,15.54c0,.14-.06.29,0,.42C17.81,15.82,17.86,15.67,17.77,15.54Z"/><path class="cls-86" d="M17.87,21.67l.06-.06v0a.11.11,0,0,1-.09-.14c0-.08.08-.08.15-.08h.31a.43.43,0,0,1,.41,0h.4c.06,0,.12,0,.12.1s-.05.1-.11.11-.29-.06-.38.06,0,.29,0,.44,0,.56,0,.84-.06.35-.31.3c.09.1.23,0,.32.1s.11-.16.11-.26c0-.35,0-.71,0-1.06,0-.18,0-.28.25-.28s.24,0,.28-.14a.3.3,0,0,0-.12-.32H17.85a.07.07,0,0,0-.09,0,.69.69,0,0,0,0,.35C17.78,21.68,17.82,21.68,17.87,21.67Z"/><polygon class="cls-86" points="17.87 21.67 17.87 21.67 17.87 21.67 17.87 21.67"/><path class="cls-87" d="M18.4,21.89c0-.1,0-.2,0-.28h-.42l-.06.06h0c.43,0,.43,0,.43.41s0,.75,0,1.13h0c.1.21.27.15.43.09-.09-.09-.23,0-.32-.1Z"/><path class="cls-88" d="M17.87,21.67h0c.38.1.38.1.39.53a4.29,4.29,0,0,0,0,1h0c0-.38,0-.75,0-1.13S18.3,21.65,17.87,21.67Z"/><path class="cls-88" d="M17.85,21.24h1.39A5,5,0,0,0,17.85,21.24Z"/><path class="cls-88" d="M17.76,21.28a.32.32,0,0,0,0,.35A.69.69,0,0,1,17.76,21.28Z"/><path class="cls-89" d="M19.13,8.92h0c.08-.11.2-.2.22-.36s.07-.13.05-.21V6.88l-.09-.07a.45.45,0,0,0-.28,0c-.18,0-.14.15-.14.26,0,.37,0,.75,0,1.13s-.14.39-.36.4-.36-.14-.38-.41,0-.33,0-.5a2.92,2.92,0,0,0-.05-.83L18,6.93c0,.22,0,.44,0,.66s-.05.19-.18.19-.18-.07-.18-.2V7c-.12,0-.05.15-.05.22,0,.41,0,.81,0,1.21a.48.48,0,0,0,.07.29.93.93,0,0,0,.58.37A1.39,1.39,0,0,0,19.13,8.92Zm-.14-2a.21.21,0,0,1,.31,0h0a1.23,1.23,0,0,1,0,.54c0,.08-.08.16,0,.25h0c-.1.18-.23.13-.36,0V6.94Z"/><path class="cls-90" d="M17.67,7c.1-.09.23-.06.35-.05h0l.07-.07c-.26-.14-.52-.1-.52.1a7,7,0,0,0,0,1.45c0-.4,0-.8,0-1.21C17.62,7.13,17.55,7,17.67,7Z"/><path class="cls-91" d="M19.44,7.21a2.81,2.81,0,0,0,0-.29v0H19.4V8.35A8.68,8.68,0,0,0,19.44,7.21Z"/><path class="cls-91" d="M19,6.81a.45.45,0,0,1,.28,0A.31.31,0,0,0,19,6.81Z"/><path class="cls-80" d="M10.56,19.38a2,2,0,0,0,.13-.6c0-1.71,0-3.41,0-5.12a.43.43,0,0,0,0-.23c-.08-.14-.11-.23.08-.3s.07-.15,0-.22-.1,0-.14,0-.14,0-.16-.08.07-.2.08-.35c-.1.11-.17.08-.23,0h0s0,.07,0,.11a4.45,4.45,0,0,1,.18,1.58c0,1.3,0,2.6,0,3.9a5.34,5.34,0,0,1-.08,1.26h0a12,12,0,0,0-.1,1.9,1,1,0,0,1,0,.23,2,2,0,0,0,.08-.22,3.14,3.14,0,0,0,.12-.61A7.17,7.17,0,0,1,10.56,19.38Z"/><path class="cls-92" d="M10.16,12.1l-.15.06c0,.15-.22,0-.24.14C9.94,12.32,10.11,12.33,10.16,12.1Z"/><path class="cls-92" d="M10.31,12.53H9.83c.14.1.34,0,.48.11,0,0,0-.08,0-.11Z"/><path class="cls-93" d="M17.67,19.19v.31h0c.36.1.4.08.56-.26a.22.22,0,0,1,.22-.15c.26,0,.51,0,.58.3,0,.06.07.11.12.16h0a.82.82,0,0,0,.41-.05.53.53,0,0,0,0-.28c-.17-.49-.34-1-.52-1.46a.42.42,0,0,0-.24-.32h-.4l-.14.12c-.18.55-.35,1.1-.58,1.63Zm.17,0c.16-.48.33-.95.49-1.42.05-.15.13-.22.28-.19a.22.22,0,0,1,.28.17c.16.49.34,1,.51,1.47,0,.06.1.16,0,.2a.19.19,0,0,1-.26-.11c-.05-.11,0-.28-.17-.3a2.11,2.11,0,0,0-.71,0c-.11,0-.11.15-.13.24s-.13.21-.26.16S17.81,19.23,17.84,19.16Z"/><path class="cls-94" d="M18.39,17.43h.4A.43.43,0,0,0,18.39,17.43Z"/><path class="cls-95" d="M17.67,11.42a2.05,2.05,0,0,0,.21.94c.12.09.21.23.36.27l.64.06H19l.16-.1a.32.32,0,0,0,.18-.43c-.09-.22-.23-.05-.35,0s-.45.09-.61-.12a.92.92,0,0,1,0-1c.15-.22.35-.19.56-.11s.23.15.33,0a.3.3,0,0,0,0-.38l-.05-.06-.13.05h0c.09.06.15.15.1.25s-.16,0-.23,0a.59.59,0,0,0-.82.54c0,.1,0,.21,0,.31,0,.54.34.77.87.62.06,0,.16-.15.21,0s0,.18-.14.23a.88.88,0,0,1-1.3-.72,1.79,1.79,0,0,1,.06-.76l-.11-.06-.07.15A.61.61,0,0,1,17.67,11.42Z"/><path class="cls-96" d="M18.88,12.69l-.64-.06A.67.67,0,0,0,18.88,12.69Z"/><path class="cls-97" d="M17.88,11a1,1,0,0,1,1-.53L19,10.4a1,1,0,0,0-1.27.54l.11.06Z"/><path class="cls-98" d="M19.14,10.56h0l.13-.05A.27.27,0,0,0,19,10.4l-.12.07Z"/><path class="cls-62" d="M17.66,19.5v-.31h0v-.05h0C17.61,19.25,17.48,19.38,17.66,19.5Z"/><path class="cls-99" d="M19.41,8.35c0,.08-.09.13-.05.21h.1a6.33,6.33,0,0,0,.05-1.23c0-.14,0-.28-.06-.41a2.81,2.81,0,0,1,0,.29A8.68,8.68,0,0,1,19.41,8.35Z"/><path class="cls-79" d="M16.18,13.37h0c.07.07.05.16.05.25V19a4.39,4.39,0,0,1,.16,1h0l.06,0s0,0,.06,0c0-.26-.13-.51-.12-.77a0,0,0,0,1,0,0,1.09,1.09,0,0,1-.08-.47c0-1.38,0-2.75,0-4.13a5.35,5.35,0,0,1,.21-2h0C16.31,12.81,16.3,13.12,16.18,13.37Z"/><polygon class="cls-79" points="16.51 12.58 16.51 12.59 16.51 12.59 16.51 12.58"/><path class="cls-79" d="M16.61,12.09a.23.23,0,0,0,.18.22c.06,0,.16,0,.15.09s-.1.11-.18.12-.19,0-.25.07h0l.36,0c.11,0,.14-.07.15-.17s0-.16-.12-.14-.19-.11-.28-.16h0Z"/><path class="cls-79" d="M16.61,12.09h0a.58.58,0,0,1-.17-.21h0A.21.21,0,0,0,16.61,12.09Z"/><path class="cls-79" d="M16.44,11.79l-.15-.12,0,0a.31.31,0,0,0,.18.19h0v-.09Z"/><path class="cls-31" d="M16.82,7.66c-.13,0-.11.13-.11.21h.11Z"/><path class="cls-67" d="M16.44,11.79h0c0-.09-.06-.15-.1-.22h-.06v.09Z"/><path class="cls-100" d="M16.6,11.57h0a1.57,1.57,0,0,1,0-.23c0-.1,0-.22.14-.2s.29-.05.28.19a1.7,1.7,0,0,0,0,.55h0l0,0c0-.19,0-.37,0-.55s-.12-.29-.33-.29-.25.12-.24.29l0,.16h0Z"/><path class="cls-100" d="M16.85,11.9l0,.09h0C17,12,17,12,17,11.9l0,0C17,11.94,16.9,11.89,16.85,11.9Z"/><path class="cls-67" d="M16.85,12a0,0,0,0,0,0,0h0l0-.09-.25-.33h0l-.09-.06h0A.87.87,0,0,0,16.85,12Z"/><path class="cls-101" d="M14.29,15.48h0a1.07,1.07,0,0,0-1.11-.66,1.49,1.49,0,0,0-.8,1.09.25.25,0,0,1,0,.19v2.14a.28.28,0,0,1,0,.2.48.48,0,0,0,.1.42,7.63,7.63,0,0,1,1.91,0v-.05c0-.1,0-.14.1-.16s0-.14,0-.21-.1-.15-.1-.24c0-.68,0-1.37,0-2.06,0-.09,0-.2.1-.23h0c0-.19-.22-.25-.25-.43Zm0,.44c0,.86,0,1.72,0,2.59,0,.15,0,.22-.2.22q-.69,0-1.38,0c-.18,0-.21-.08-.21-.24V17.17h0c0-.41,0-.83,0-1.24a.9.9,0,1,1,1.79,0Z"/><path class="cls-34" d="M16.23,19a.65.65,0,0,1,0-.53V13.62c0-.09,0-.18-.05-.25h0c-.08.1-.05.22-.05.33v4.41c0,.11,0,.23-.05.33a2.15,2.15,0,0,1-.09.75c0,.07-.18.36.15.36,0,0,.17.18.11.22-.32.17-.13.45-.17.68a.57.57,0,0,0,.06.45.49.49,0,0,0,0-.1c0-.27-.09-.58.2-.77,0,0,0-.07,0-.11h0A4.39,4.39,0,0,0,16.23,19Z"/><path class="cls-34" d="M16,21.2c0,.11.11.09.19.1h.07a.13.13,0,0,1,.14.15c0,.11-.1.08-.17.06L16,21.44c-.12.27.14.39.23.55s.13-.14.24-.12,0,.15,0,.23-.11.27.07.36A6.06,6.06,0,0,0,17,21.7c.09-.14,0-.13-.13-.12-.3,0-.35,0-.35-.32V21c-.14,0-.23.09-.35.1S16,21.09,16,21.2Z"/><path class="cls-102" d="M14.71,16.12c0-.34-.16-.57-.42-.64h0c0,.18.25.24.25.43a.4.4,0,0,1,.06.3v2c0,.09,0,.21.09.26h0A15,15,0,0,0,14.71,16.12Z"/><path class="cls-103" d="M12.8,10.94a1.55,1.55,0,0,0,1.12,0l.15,0h0v-.12h0a1.28,1.28,0,0,1-1.16,0,.49.49,0,0,1-.33-.21.13.13,0,0,1-.09-.1,1.19,1.19,0,0,1,0-1.66.13.13,0,0,1,.1-.1l.12-.15,0,0a.49.49,0,0,0-.36.28l-.15.26h0a.28.28,0,0,1-.1.21v.37a1.62,1.62,0,0,0,.11.58.23.23,0,0,1,.1.22C12.46,10.65,12.56,10.88,12.8,10.94Z"/><path class="cls-89" d="M12.8,10.94c0,.05,0,.1-.1.09s-.12,0-.11.11a.12.12,0,0,0,.13.11h1.44a.1.1,0,0,0,.11-.09.13.13,0,0,0-.06-.14c-.05,0-.13,0-.14-.08l-.15,0A1.55,1.55,0,0,1,12.8,10.94Z"/><path class="cls-102" d="M15,16.29a.26.26,0,0,0-.1-.22c0,.73,0,1.43,0,2.13,0,.15,0,.26-.22.24h0l.09.14c0,.06,0,.21.16.15s.08-.15.05-.23a1,1,0,0,1,0-.34A14.56,14.56,0,0,0,15,16.29Z"/><path class="cls-102" d="M12.48,18.86c0,.12.13.11.21.11l1.49,0c.09,0,.18,0,.21-.13A7.63,7.63,0,0,0,12.48,18.86Z"/><path class="cls-102" d="M12.43,16.1a.25.25,0,0,0,0-.19,1.77,1.77,0,0,1,0,.23c-.16.36.05.74-.09,1.1,0,.06,0,.15.06.22l0,.1v0a.19.19,0,0,1,0,.08.83.83,0,0,0,0,.78.28.28,0,0,0,0-.2Z"/><path class="cls-102" d="M14.39,16.14c0,.69,0,1.38,0,2.06,0,.09,0,.2.1.24V15.91C14.36,15.94,14.39,16.05,14.39,16.14Z"/><path class="cls-102" d="M12.65,19.11c.52.36,1,0,1.58.08v-.08Z"/><path class="cls-103" d="M14,8.6h0l.09,0,.07,0h0A1.44,1.44,0,0,0,13,8.33c-.1,0-.33,0-.27.27l0,0A1.28,1.28,0,0,1,14,8.6Z"/><path class="cls-89" d="M14.06,10.82h0v.12c.22-.06.28-.31.51-.38a.33.33,0,0,0,.15.24s.09,0,.12,0,0-.07,0-.1l-.23-.34-.11.05Z"/><path class="cls-104" d="M14.49,10.32v.09l.11-.05A1.36,1.36,0,0,0,14.51,9l0,0A1.27,1.27,0,0,1,14.49,10.32Z"/><path class="cls-101" d="M12.93,14.63c0,.15.13.11.21.11s.26.07.27-.11-.14-.08-.24-.1S12.94,14.47,12.93,14.63Z"/><path class="cls-105" d="M12.13,8.74c-.12.06,0,.15,0,.22a.58.58,0,0,1,0,.18l.15-.26C12.3,8.76,12.24,8.69,12.13,8.74Z"/><path class="cls-105" d="M12.13,10.48c0,.07-.12.16,0,.2s.15-.07.17-.16a.23.23,0,0,0-.1-.22A.53.53,0,0,1,12.13,10.48Z"/><path class="cls-80" d="M10.51,12.15a.14.14,0,0,0-.12.15s0,.11.08.11.11-.08.11-.16S10.59,12.13,10.51,12.15Z"/><path class="cls-105" d="M12,10.2c-.07,0-.12,0-.12.11s0,.09.08.08.14-.05.14-.13S12,10.21,12,10.2Z"/><path class="cls-101" d="M14.17,14.94a.09.09,0,0,0,.1-.09c0-.07,0-.1-.1-.09a.09.09,0,0,0-.09.08C14.08,14.9,14.1,14.94,14.17,14.94Z"/><path class="cls-106" d="M16.12,23c.09-.12.05-.25.06-.37h0C16,22.77,16.1,22.91,16.12,23Z"/><path class="cls-101" d="M12.6,14.84a.08.08,0,0,0,.16,0q0-.09-.09-.12A.07.07,0,0,0,12.6,14.84Z"/><path class="cls-104" d="M14.29,8.82l.19.17,0,0a1.17,1.17,0,0,0-.33-.37h0l-.07,0C14.15,8.7,14.26,8.72,14.29,8.82Z"/><path class="cls-34" d="M16.39,23.2,16.5,23c-.08,0-.17,0-.2.08S16.32,23.18,16.39,23.2Z"/><path class="cls-34" d="M16.12,23.24a.27.27,0,0,0-.11.1s0,.06.07.06a.08.08,0,0,0,.09-.09S16.15,23.23,16.12,23.24Z"/><path class="cls-105" d="M12.06,9.72V9.46C11.81,9.54,11.93,9.63,12.06,9.72Z"/><path class="cls-80" d="M10.84,12.11a.11.11,0,0,0,0,.09s0,.07,0,.07.05-.07,0-.11S10.88,12.09,10.84,12.11Z"/><path class="cls-101" d="M13.68,14.59l.17.12c0-.12,0-.16-.12-.16Z"/><path class="cls-80" d="M10.85,11.09a.09.09,0,0,0,0,0,.07.07,0,0,0,0,.09l0-.05S10.89,11.1,10.85,11.09Z"/><path class="cls-105" d="M12.06,9.14C12,9,12,9,11.88,9.08s.12.05.18.06Z"/><path class="cls-34" d="M16.18,22.67h0c.12,0,.1-.09.08-.21A.27.27,0,0,0,16.18,22.67Z"/><path class="cls-102" d="M14.39,18.81c.09,0,.1-.08.1-.16S14.35,18.71,14.39,18.81Z"/><path class="cls-105" d="M12.06,9.14h0v.21a.28.28,0,0,0,.1-.21Z"/><path d="M10.46,8.2s-.05,0-.05,0,0,0,.07,0l0,0C10.54,8.2,10.5,8.2,10.46,8.2Z"/><path d="M10.63,8.46s0,0,0,0-.11,0-.13.09S10.6,8.54,10.63,8.46Z"/><path d="M16.09,12.87a.05.05,0,0,0,0,0s0,0,.05,0l0,0S16.09,12.84,16.09,12.87Z"/><path class="cls-107" d="M18.19,15.61c0-.11,0-.23,0-.34s0-.21.19-.21c.78,0,.65-.07.65.59,0,.21.06.29.27.26h0V14.06H19c0,.24.05.49-.06.73h0a1.33,1.33,0,0,1-.74,0h0c-.11-.18,0-.38,0-.56s0-.18-.14-.18-.18,0-.18.15c0,.57,0,1.13,0,1.69C18.12,16,18.22,15.86,18.19,15.61Z"/><path class="cls-83" d="M19.35,15.68v-1.4c0-.08,0-.16-.05-.22v1.85A.32.32,0,0,0,19.35,15.68Z"/><path class="cls-85" d="M19,14.06c-.12.23,0,.49-.06.73h0C19.09,14.55,19,14.3,19,14.06Z"/><path class="cls-85" d="M19,14.79h-.74A1.33,1.33,0,0,0,19,14.79Z"/><path class="cls-108" d="M18.35,21.61h0c.07.08,0,.18,0,.28V23.2c.25.05.33-.06.31-.3s0-.56,0-.84-.05-.32,0-.44.25,0,.38-.06.12,0,.11-.11-.06-.1-.12-.1H18c-.07,0-.13,0-.15.08a.11.11,0,0,0,.09.14C18.07,21.57,18.22,21.52,18.35,21.61Z"/><path class="cls-88" d="M18.71,21.34a.43.43,0,0,0-.41,0h.41Z"/><path class="cls-88" d="M18.35,21.61c-.13-.09-.28,0-.42,0v0Z"/><path class="cls-2" d="M17.67,7v.6c0,.13,0,.2.18.2s.18-.06.18-.19,0-.44,0-.66h0C17.9,6.92,17.77,6.89,17.67,7Z"/><path class="cls-2" d="M19,7.76a.46.46,0,0,0,.36,0h0c-.08-.09,0-.17,0-.25a1.41,1.41,0,0,1,0-.54h0l-.31,0h0Z"/><path class="cls-2" d="M19.35,7.46a1.23,1.23,0,0,0,0-.54h0A1.41,1.41,0,0,0,19.35,7.46Z"/><path class="cls-2" d="M19,7.76c.13.08.26.13.36,0h0A.46.46,0,0,1,19,7.76Z"/><path class="cls-2" d="M19,6.94h0l.31,0A.21.21,0,0,0,19,6.94Z"/><path class="cls-109" d="M17.84,19.39c.13.05.21,0,.26-.16s0-.22.13-.24a2.11,2.11,0,0,1,.71,0c.14,0,.12.19.17.3a.19.19,0,0,0,.26.11c.13,0,.05-.14,0-.2-.17-.49-.35-1-.51-1.47a.22.22,0,0,0-.28-.17c-.15,0-.23,0-.28.19-.16.47-.33.94-.49,1.42C17.81,19.23,17.72,19.33,17.84,19.39Zm.51-1L18.5,18s0-.09.09-.09.07.05.08.09.11.3.16.45c.12.32.1.35-.23.35S18.25,18.73,18.35,18.41Z"/><path class="cls-110" d="M17.88,11h0a1.79,1.79,0,0,0-.06.76.88.88,0,0,0,1.3.72c.1-.05.17-.12.14-.23s-.15,0-.21,0c-.53.15-.85-.08-.87-.62,0-.1,0-.21,0-.31a.59.59,0,0,1,.82-.54c.07,0,.16.14.23,0s0-.19-.1-.25h0l-.22-.09A1,1,0,0,0,17.88,11Z"/><path class="cls-81" d="M16.23,19v-.53A.65.65,0,0,0,16.23,19Z"/><path class="cls-111" d="M17,11.88h0a1.7,1.7,0,0,1,0-.55c0-.24-.14-.18-.28-.19s-.15.1-.14.2a1.57,1.57,0,0,0,0,.23h0l.25.33S17,11.94,17,11.88Z"/><path class="cls-112" d="M13.4,15a.89.89,0,0,0-.88.93c0,.41,0,.83,0,1.24h0v1.32c0,.16,0,.24.21.24q.69,0,1.38,0c.16,0,.2-.07.2-.22,0-.87,0-1.73,0-2.59A.89.89,0,0,0,13.4,15Zm.67,3.31c0,.32,0,.32-.33.29-.1,0-.22,0-.31-.05h0a2.63,2.63,0,0,0-.79.05c-.07,0-.05-.06-.05-.1V15.77c.08,0,0,.09.05.14.24-.09.25-.11.07-.31s0-.11.07-.16.22-.31.43-.13c.06.06.14.09.21,0s.24-.06.36-.07a.23.23,0,0,1,.23.34c0,.07-.07.14,0,.2a2,2,0,0,1,.09,1C14.08,17.31,14.07,17.81,14.07,18.31Z"/><path class="cls-1" d="M14.49,10.41v-.15a1.57,1.57,0,0,0-.2-1.44A.33.33,0,0,1,14,8.61l-.53-.09c-.35-.07-.61.16-.91.25a.13.13,0,0,0-.1.1,1.9,1.9,0,0,0-.27.94c0,.27.22.47.27.72a.13.13,0,0,0,.09.1.31.31,0,0,1,.33.21,1.28,1.28,0,0,0,1.16,0h0Z"/><path class="cls-113" d="M13.49,8.52l.53.09h0a1.28,1.28,0,0,0-1.32,0h0l-.12.15C12.88,8.68,13.14,8.45,13.49,8.52Z"/><path class="cls-114" d="M12.48,8.87a1.19,1.19,0,0,0,0,1.66c-.05-.25-.24-.45-.27-.72A1.9,1.9,0,0,1,12.48,8.87Z"/><path class="cls-114" d="M12.57,10.63a.49.49,0,0,0,.33.21A.31.31,0,0,0,12.57,10.63Z"/><path class="cls-113" d="M14.29,8.82h0c0-.1-.14-.12-.18-.2L14,8.6h0A.33.33,0,0,0,14.29,8.82Z"/><path class="cls-113" d="M14.29,8.81h0a1.57,1.57,0,0,1,.2,1.44v.06a1.27,1.27,0,0,0,0-1.33h0l-.19-.17Z"/><path class="cls-115" d="M18.6,18.76c.33,0,.35,0,.23-.35,0-.15-.1-.3-.16-.45s0-.09-.08-.09-.07.05-.09.09l-.15.45C18.25,18.73,18.26,18.76,18.6,18.76Zm-.09-.42c0-.06,0-.12.08-.12s.07.06.08.12.13.27-.05.28S18.47,18.46,18.51,18.34Z"/><path class="cls-1" d="M14,15.8c0-.06,0-.13,0-.2a.23.23,0,0,0-.23-.34c-.12,0-.25,0-.36.07s-.15,0-.21,0c-.21-.18-.33-.05-.43.13s-.13.09-.07.16.17.22-.07.31V18.6a2.63,2.63,0,0,1,.79-.05c.12-.2.28-.09.43-.06-.13.09-.28,0-.43.06.09.08.21,0,.31.05.32,0,.33,0,.33-.29,0-.5,0-1,0-1.5A2,2,0,0,0,14,15.8Zm-.16-.22s0,0,0,0,0,0,.06,0,0,0,0,.05Z"/><path class="cls-116" d="M12.59,15.77V18.5s0,.1.05.1V15.91C12.63,15.86,12.67,15.8,12.59,15.77Z"/><path class="cls-117" d="M18.62,18.62c.18,0,.09-.17.05-.28a.15.15,0,0,0-.16,0C18.47,18.46,18.36,18.65,18.62,18.62Z"/><path class="cls-118" d="M18.59,18.22c-.06,0-.08.06-.08.12a.15.15,0,0,1,.16,0C18.66,18.28,18.65,18.22,18.59,18.22Z"/><path class="cls-112" d="M13.43,18.55h0c.15,0,.3,0,.43-.06C13.71,18.46,13.55,18.35,13.43,18.55Z"/><path class="cls-112" d="M13.78,15.54s0,0,0,0l0,0s0,0,0-.05S13.78,15.51,13.78,15.54Z"/></svg>