<svg id="Camada_1" data-name="Camada 1" xmlns="http://www.w3.org/2000/svg" viewBox="0 0 28.27 30.23"><defs><style>.cls-1{fill:#7091be;}.cls-2{fill:#010101;}.cls-3{fill:#7191b9;}.cls-4{fill:#7291ba;}.cls-5{fill:#7390b8;}.cls-6{fill:#7291b9;}.cls-7{fill:#7390b7;}.cls-8{fill:#7291b8;}.cls-9{fill:#7191b8;}.cls-10{fill:#7990b2;}.cls-11{fill:#7491b6;}.cls-12{fill:#718db2;}.cls-13{fill:#7091b6;}.cls-14{fill:#6f92b6;}.cls-15{fill:#7590b7;}.cls-16{fill:#788da9;}.cls-17{fill:#6f92c1;}.cls-18{fill:#7690b7;}.cls-19{fill:#7a92ae;}.cls-20{fill:#778ca9;}.cls-21{fill:#7e92ad;}.cls-22{fill:#788da8;}.cls-23{fill:#7990ac;}.cls-24{fill:#768da7;}.cls-25{fill:#7290b5;}.cls-26{fill:#798fa8;}.cls-27{fill:#04040b;}.cls-28{fill:#7491b7;}.cls-29{fill:#738caa;}.cls-30{fill:#7791af;}.cls-31{fill:#7a8faa;}.cls-32{fill:#7690b5;}.cls-33{fill:#6f93b4;}.cls-34{fill:#6b92c7;}.cls-35{fill:#8192a9;}.cls-36{fill:#838faf;}.cls-37{fill:#7d91ad;}.cls-38{fill:#798ca8;}.cls-39{fill:#768aa2;}.cls-40{fill:#7a8fac;}.cls-41{fill:#7c91ac;}.cls-42{fill:#818aa0;}.cls-43{fill:#7a8daa;}.cls-44{fill:#7d93ab;}.cls-45{fill:#7e91a8;}.cls-46{fill:#798fab;}.cls-47{fill:#818ea0;}.cls-48{fill:#7f91a7;}.cls-49{fill:#818da1;}.cls-50{fill:#778da7;}.cls-51{fill:#778ba3;}.cls-52{fill:#aac1ed;}.cls-53{fill:#030206;}.cls-54{fill:#020107;}.cls-55{fill:#030308;}.cls-56{fill:#04050c;}.cls-57{fill:#040309;}.cls-58{fill:#030208;}.cls-59{fill:#03030d;}.cls-60{fill:#04050b;}.cls-61{fill:#05070e;}.cls-62{fill:#aabce3;}.cls-63{fill:#aabbde;}.cls-64{fill:#abbde2;}.cls-65{fill:#050812;}.cls-66{fill:#070812;}.cls-67{fill:#a9bce1;}.cls-68{fill:#a9badf;}.cls-69{fill:#05050d;}.cls-70{fill:#9fc5fe;}.cls-71{fill:#9fc5fd;}.cls-72{fill:#00020c;}.cls-73{fill:#020203;}.cls-74{fill:#93a3c4;}.cls-75{fill:#9fc4fa;}.cls-76{fill:#97b6e2;}.cls-77{fill:#8ca5cf;}.cls-78{fill:#9dbff0;}.cls-79{fill:#9dc2f5;}.cls-80{fill:#a5c2f5;}.cls-81{fill:#0a0d16;}.cls-82{fill:#99abce;}.cls-83{fill:#9db0d5;}.cls-84{fill:#98a9cb;}.cls-85{fill:#8a99b9;}.cls-86{fill:#03040a;}.cls-87{fill:#8e9cbd;}.cls-88{fill:#8a9abb;}.cls-89{fill:#8a97b8;}.cls-90{fill:#9dc0ef;}.cls-91{fill:#97a8c9;}.cls-92{fill:#9caed4;}.cls-93{fill:#a3b9df;}.cls-94{fill:#a9c4f7;}.cls-95{fill:#8892b8;}.cls-96{fill:#a7c8f8;}.cls-97{fill:#97a6cf;}.cls-98{fill:#99abd1;}.cls-99{fill:#607faf;}.cls-100{fill:#9aadd2;}.cls-101{fill:#9aabcf;}.cls-102{fill:#9aacd1;}.cls-103{fill:#a9bbdd;}.cls-104{fill:#97b8ea;}.cls-105{fill:#7c8fb1;}.cls-106{fill:#9bbbe9;}.cls-107{fill:#a1c4f6;}.cls-108{fill:#a2c9fa;}.cls-109{fill:#a5c9f8;}.cls-110{fill:#a9ccfd;}.cls-111{fill:#a5cbfd;}.cls-112{fill:#adcffd;}.cls-113{fill:#10121b;}.cls-114{fill:#9dbded;}.cls-115{fill:#a3c6f0;}.cls-116{fill:#b0cefc;}.cls-117{fill:#010102;}.cls-118{fill:#0d0f17;}.cls-119{fill:#020305;}.cls-120{fill:#040609;}.cls-121{fill:#3b434f;}.cls-122{fill:#44474d;}.cls-123{fill:#3f4147;}.cls-124{fill:#464a52;}.cls-125{fill:#454a53;}.cls-126{fill:#41454b;}.cls-127{fill:#484d5a;}.cls-128{fill:#020205;}.cls-129{fill:#131623;}.cls-130{fill:#161824;}.cls-131{fill:#1a2232;}.cls-132{fill:#3f444c;}.cls-133{fill:#474e5b;}.cls-134{fill:#40454c;}.cls-135{fill:#7d869f;}.cls-136{fill:#424952;}.cls-137{fill:#434853;}.cls-138{fill:#75839b;}.cls-139{fill:#232c3d;}.cls-140{fill:#020204;}.cls-141{fill:#010103;}.cls-142{fill:#05050b;}.cls-143{fill:#101525;}.cls-144{fill:#030205;}.cls-145{fill:#010009;}.cls-146{fill:#7f7f7f;}.cls-147{fill:#7d7e7e;}.cls-148{fill:#525252;}.cls-149{fill:#7f7f80;}.cls-150{fill:#807f80;}.cls-151{fill:#07080c;}.cls-152{fill:#a0c4f7;}.cls-153{fill:#9ec5fe;}.cls-154{fill:#9ec0ef;}.cls-155{fill:#9abae5;}.cls-156{fill:#424446;}.cls-157{fill:#a6cdfe;}.cls-158{fill:#818eae;}.cls-159{fill:#6a7a8e;}</style></defs><title>Logo</title><rect class="cls-1" width="28.27" height="30.23" rx="4"/><path class="cls-2" d="M19.82,25.57l-1.31.64c-.08.14-.23.11-.35.16a3.4,3.4,0,0,1-1.16.4,10.17,10.17,0,0,1-3.34.35.44.44,0,0,1-.25-.06.31.31,0,0,0-.28-.17,2.07,2.07,0,0,0-.75.11,1,1,0,0,1-.42-.12,7.81,7.81,0,0,1-1.57-.38.71.71,0,0,1-.34-.18l-1.21-.48a4.08,4.08,0,0,1-.58-.32A3.24,3.24,0,0,0,7.52,25a1,1,0,0,1-.64-.47,1.63,1.63,0,0,0-.51-.43.39.39,0,0,1-.23-.21L5,22.63a1.34,1.34,0,0,1-.06-.12c0-.05-.11-.05-.14-.12a7.71,7.71,0,0,0-.49-.77c-.12,0-.12-.14-.14-.23A12.84,12.84,0,0,1,3,18.92a.7.7,0,0,1-.22-.4,9.12,9.12,0,0,1-.3-1.87c0-.12-.06-.21-.05-.32A.4.4,0,0,1,2.37,16a4.38,4.38,0,0,0,0-.81,8.83,8.83,0,0,0,0-1A.21.21,0,0,1,2.44,14l.24-1.4a1.23,1.23,0,0,0,0-.19,1.24,1.24,0,0,1,.29-1A12.6,12.6,0,0,1,4.64,8.12c.11-.16.23-.31.35-.46s.12-.13.15-.22a.43.43,0,0,1,.26-.31c0-.1.18-.11.21-.22s0-.19.17-.19l.11-.11c0-.15.12-.16.21-.21l1.2-1c0-.09.15-.11.23-.14a.19.19,0,0,0,.15-.11c0-.08.11-.06.15-.11L7.94,5a.64.64,0,0,1,.43-.25,1.41,1.41,0,0,0,.38-.21c.13-.24.37-.26.61-.29a12.63,12.63,0,0,1,2.7-.84c.19-.16.42-.07.63-.1a.69.69,0,0,0,.32,0,.43.43,0,0,1,.42-.08.65.65,0,0,0,.31,0,6.47,6.47,0,0,1,1.39,0,16.62,16.62,0,0,1,2.21.44c.06.12.18.06.27.1l.58.16a.18.18,0,0,1,.21.1h.05a1,1,0,0,1,.69.32h.05c.08,0,.12,0,.16.09l0,0c.08,0,.12,0,.16.09l.22.11a.23.23,0,0,1,.21.1c.06,0,.07.12.15.11a1.57,1.57,0,0,1,.79.54.27.27,0,0,0,.16.1,1.06,1.06,0,0,1,.48.38l.05,0c.11,0,.12.09.16.15a7.75,7.75,0,0,1,.95,1c.15.12.34.2.39.42l.37.47a.91.91,0,0,1,.37.53l.1.16a.3.3,0,0,1,.14.22.28.28,0,0,0,.11.17c.05,0,.05.05.05.09a2,2,0,0,0,.26.48c.09,0,.09.14.11.22l.59,1.46a.33.33,0,0,1,.11.32s0,.09,0,.11.06.18.1.27a1.4,1.4,0,0,1,.17.8c-.08.12.06.2.07.3a.41.41,0,0,1,0,.22.44.44,0,0,0,.07.58.23.23,0,0,1,.06.16c0,.49,0,1,0,1.45,0,.3,0,.59,0,.89a.64.64,0,0,1-.1.35A14.64,14.64,0,0,1,25.23,19a.31.31,0,0,1-.11.32l-.3.74a.26.26,0,0,1-.12.27,18.58,18.58,0,0,1-1.22,2.06.64.64,0,0,1-.1.18.83.83,0,0,0-.19.23c-.11,0-.12.11-.18.16s-.13.33-.32.37l-.06.1c-.28.39-.69.64-1,1a.3.3,0,0,1-.28.11.14.14,0,0,0-.11.13c0,.09-.09.08-.16.08a.73.73,0,0,0-.26.2c0,.06-.08.12-.16.11l-.68.43C20,25.53,19.91,25.59,19.82,25.57Z"/><path class="cls-3" d="M13.43,27a8.28,8.28,0,0,0,2,0A15.12,15.12,0,0,0,17,26.69c.08.13-.05.15-.11.21a.71.71,0,0,0-.73.24c-.05.08-.14.07-.22.07H13.63c-.17,0-.3-.14-.48-.09s-.14,0-.14,0c0,.35-.29.1-.42.18,0-.13,0-.22-.19-.21s-.36-.16-.5.08c0,0-.1,0-.13,0a.1.1,0,0,1,0-.14c.06,0,.14,0,.15-.12s0,0,0,0l0,0,.43,0c.26,0,.53,0,.79,0C13.27,26.93,13.37,26.92,13.43,27Z"/><path class="cls-4" d="M16.92,26.9l.11-.21,1.48-.48c0,.21,0,.21.47.3a1.19,1.19,0,0,1-.6.06c-.11-.43-.32.06-.48-.13.05.19.18.1.24.18A2,2,0,0,1,16.92,26.9Z"/><path class="cls-5" d="M2.49,16.65A14.64,14.64,0,0,0,3,18.92c-.12,0-.12,0-.2-.17-.1.07,0,.2-.11.29a1.14,1.14,0,0,1-.15-.6c.1-.08,0-.23.1-.31A3.11,3.11,0,0,1,2.49,16.65Z"/><path class="cls-6" d="M3,11.37l-.29,1a.26.26,0,0,1-.14-.21,2.31,2.31,0,0,1,.15-1.33c.1.31-.18.56,0,.82C2.78,11.53,2.75,11.3,3,11.37Z"/><path class="cls-7" d="M12,26.85v0a2.34,2.34,0,0,1-1-.18.22.22,0,0,0-.18,0c-.14.06-.14.06-.19-.08s-.1,0-.15-.05-.16.13-.29.08c.15-.14,0-.22,0-.34.51.14,1,.33,1.51.44C11.69,26.79,11.84,26.74,12,26.85Z"/><path class="cls-8" d="M21.36,24.52c.37-.31.72-.63,1.06-1,.06-.06.1-.15.21-.15a1,1,0,0,1-.21.33c0,.2-.17.28-.32.37s-.3.08-.25.33-.14.25-.3.18Z"/><path class="cls-9" d="M6.88,24.57a2.93,2.93,0,0,1,.64.47c-.14.11-.28.31-.41,0-.05-.12-.15.11-.24,0A.44.44,0,0,1,6.88,24.57Z"/><path class="cls-10" d="M25.75,16.7a15.62,15.62,0,0,0,.1-1.68c0-.35,0-.71-.06-1.07a.06.06,0,0,1,0-.07.09.09,0,0,1,.11,0,.27.27,0,0,1,0,.32c0,.71,0,1.43,0,2.15C25.91,16.51,25.91,16.64,25.75,16.7Z"/><path class="cls-11" d="M15.13,3.21c-.71,0-1.41,0-2.12,0,.09-.21.23-.28.44-.16a.44.44,0,0,0,.28.05h1.15C15,3.12,15.08,3.09,15.13,3.21Z"/><path class="cls-12" d="M2.44,14a16.85,16.85,0,0,0,0,2c-.06,0-.1,0-.09-.06V14.43c0-.07,0-.17,0-.2C2.1,14,2.26,14,2.44,14Z"/><path class="cls-13" d="M20.93,5.4l-.79-.54c0-.05.08-.08.07-.16s.06-.06.1-.07.11,0,.1,0c0,.34.31.38.49.52S20.94,5.33,20.93,5.4Z"/><path class="cls-6" d="M9.36,4.21l-.61.29c-.07-.07.06-.25-.15-.28A2.16,2.16,0,0,1,9.36,4.21Z"/><path class="cls-14" d="M19.14,4.33,18.45,4c.12-.18.24-.2.36,0S19.15,4.1,19.14,4.33Z"/><path class="cls-15" d="M25.6,12.78l-.16-.84s0,0,0,0c.28.27.19.62.2,1a0,0,0,0,1-.05,0A.2.2,0,0,1,25.6,12.78Z"/><path class="cls-16" d="M23.86,8.45l-.37-.53C23.77,8,23.91,8.22,23.86,8.45Z"/><path class="cls-17" d="M22.1,24.1c0-.19.21-.26.32-.37h.1c.05,0,.09,0,.06.1h0c-.14.1-.22.25-.37.32Z"/><path class="cls-18" d="M2.34,15.9l.09.06v.37C2.19,16.17,2.17,16.08,2.34,15.9Z"/><path class="cls-19" d="M12.69,3.27l-.63.1c0-.13.09-.16.19-.15S12.55,3.18,12.69,3.27Z"/><path class="cls-20" d="M21.57,5.88a2,2,0,0,1-.48-.38C21.4,5.45,21.46,5.7,21.57,5.88Z"/><path class="cls-21" d="M25.65,12.89h0a1.19,1.19,0,0,1,.11.69.06.06,0,0,1-.08,0,.36.36,0,0,1,0-.32l0-.21A.12.12,0,0,1,25.65,12.89Z"/><path class="cls-22" d="M5.4,7.13c0,.13-.17.19-.21.31s-.05.15-.15.12C5.07,7.35,5.12,7.14,5.4,7.13Z"/><path class="cls-23" d="M23.12,7.45,22.73,7C23,7.07,23.15,7.23,23.12,7.45Z"/><path class="cls-24" d="M8.26,25.52a1.08,1.08,0,0,1,.58.32A.83.83,0,0,1,8.26,25.52Z"/><path class="cls-8" d="M22.21,24.15a.5.5,0,0,1,.37-.32C22.51,24,22.44,24.17,22.21,24.15Z"/><path class="cls-25" d="M22.69,23.3c.11-.12.16-.28.32-.37C23,23.16,22.94,23.31,22.69,23.3Z"/><path class="cls-26" d="M8.37,4.71A1.24,1.24,0,0,1,7.94,5C8,4.69,8.17,4.69,8.37,4.71Z"/><path class="cls-27" d="M5,7.56l.15-.12v0c-.06.11.18.16.07.26S5.11,7.6,5,7.66Z"/><path class="cls-14" d="M18.4,4a.58.58,0,0,1-.21-.1c.09-.07.13-.25.32-.14C18.5,3.86,18.37,3.9,18.4,4Z"/><path class="cls-28" d="M6,24.06a.11.11,0,0,1,.1.09c0,.07,0,.1-.09.09s-.09,0-.09-.1S6,24.07,6,24.06Z"/><path class="cls-29" d="M5.78,6.72a.39.39,0,0,1-.17.19s0-.06,0-.08-.14-.12,0-.19S5.72,6.67,5.78,6.72Z"/><path class="cls-30" d="M6.1,6.4a.53.53,0,0,1-.21.21C5.73,6.31,6,6.42,6.1,6.4Z"/><path class="cls-31" d="M25.33,11.57a1.1,1.1,0,0,1-.11-.32C25.45,11.29,25.39,11.43,25.33,11.57Z"/><path class="cls-32" d="M25.75,13.58h.05c0,.11.13.19.11.32H25.8C25.74,13.8,25.62,13.71,25.75,13.58Z"/><path class="cls-32" d="M25.91,14.22V13.9C26.07,14,26.06,14.11,25.91,14.22Z"/><path class="cls-33" d="M21.78,5.87c0-.07,0-.16.07-.17a.17.17,0,0,1,.1.1c0,.1-.11,0-.17.07Z"/><path class="cls-34" d="M2.65,18.13c0,.11.07.25-.1.31C2.57,18.33,2.48,18.19,2.65,18.13Z"/><path class="cls-8" d="M22.58,23.83l-.06-.1c.05,0,.08-.11.15-.09s0,0,0,.08S22.66,23.84,22.58,23.83Z"/><path class="cls-35" d="M24.7,20.3l.12-.27C24.81,20.13,25,20.32,24.7,20.3Z"/><path class="cls-36" d="M25.12,19.29l.11-.32C25.28,19.1,25.35,19.25,25.12,19.29Z"/><path class="cls-31" d="M25.49,11.94h0a.47.47,0,0,1-.08-.26C25.6,11.67,25.43,11.86,25.49,11.94Z"/><path class="cls-13" d="M20,4.75c-.1,0-.15,0-.21-.1C19.9,4.56,20,4.59,20,4.75Z"/><path class="cls-37" d="M21.78,6.08a.46.46,0,0,1-.16-.15.17.17,0,0,1,.16-.06h0Z"/><path class="cls-3" d="M12.59,27.32c0,.07-.05.1-.1.1s-.09,0-.08-.07.06-.05.1,0Z"/><path class="cls-38" d="M23.36,22.5c0-.06,0-.13.12-.14.12.15,0,.16-.11.2S23.34,22.52,23.36,22.5Z"/><path class="cls-27" d="M17.61,3.75c-.11,0-.24.13-.27-.1C17.42,3.71,17.54,3.67,17.61,3.75Z"/><path class="cls-8" d="M22.09,24.26s.08,0,.07.06,0,0-.06,0-.08,0-.06-.05S22.07,24.27,22.09,24.26Z"/><path class="cls-39" d="M20.67,25c0-.07.09-.09.16-.11S20.83,25.15,20.67,25Z"/><path class="cls-40" d="M24.63,9.79a.33.33,0,0,1-.11-.22C24.63,9.6,24.75,9.63,24.63,9.79Z"/><path class="cls-41" d="M7.53,5.24a.33.33,0,0,1-.23.14C7.3,5.22,7.42,5.23,7.53,5.24Z"/><path class="cls-42" d="M23.36,22.5v.06a.34.34,0,0,1-.18.21A.33.33,0,0,1,23.36,22.5Z"/><path class="cls-3" d="M13.4,27.37c0,.05-.05.05-.08,0a.07.07,0,0,1-.05,0s0-.05.07,0S13.38,27.35,13.4,27.37Z"/><path class="cls-43" d="M7.83,5c0,.08-.08.1-.15.11C7.62,4.94,7.78,5.06,7.83,5Z"/><path class="cls-28" d="M6.14,23.93l.23.21A.22.22,0,0,1,6.14,23.93Z"/><path class="cls-44" d="M19.56,4.54l-.16-.09C19.53,4.34,19.55,4.42,19.56,4.54Z"/><path class="cls-45" d="M19.35,4.43l-.16-.09C19.32,4.23,19.34,4.32,19.35,4.43Z"/><path class="cls-46" d="M19.82,25.57a.3.3,0,0,1,.17-.1C20,25.58,20,25.67,19.82,25.57Z"/><path class="cls-47" d="M24.1,8.83A.52.52,0,0,1,24,8.61C24.11,8.61,24.11,8.72,24.1,8.83Z"/><path class="cls-48" d="M24.26,9.09c-.05,0-.05-.05-.05-.09s.05-.06.08,0S24.3,9.06,24.26,9.09Z"/><path class="cls-49" d="M4.14,21.39l.14.23C4.13,21.61,4.13,21.5,4.14,21.39Z"/><path class="cls-50" d="M21.09,24.73c0-.07.1-.07.16-.08S21.2,24.81,21.09,24.73Z"/><path class="cls-25" d="M23,23.3s.06,0,.05,0,0,.05-.05.05-.06,0,0,0A.12.12,0,0,1,23,23.3Z"/><path class="cls-51" d="M4.77,22.39a.14.14,0,0,1,.14.12C4.83,22.51,4.77,22.49,4.77,22.39Z"/><path class="cls-52" d="M12.38,26.1a12.86,12.86,0,0,1-2.12-.61L10,25.41A6.56,6.56,0,0,1,9,25c-.1,0-.13-.13-.19-.21a11.2,11.2,0,0,1-2.23-1.71,10.42,10.42,0,0,1-2.11-2.94,1.06,1.06,0,0,0-.21-.44h0c0-.08,0-.17-.09-.22a.05.05,0,0,1,0-.05c0-.09,0-.15-.08-.22a8.69,8.69,0,0,1-.65-2.41c0-.12.09-.27-.06-.38A10.12,10.12,0,0,1,3.3,14a11.22,11.22,0,0,1,1.1-3.84L4.49,10c.09-.09.18-.17.17-.31h0a.19.19,0,0,0,.1-.16A7.35,7.35,0,0,1,5.81,8c.31-.36.64-.7,1-1A.45.45,0,0,1,7,6.72L7.94,6a.48.48,0,0,1,.22-.15h0a.9.9,0,0,1,.42-.27,12.21,12.21,0,0,1,2.18-1c.34-.11.69-.2,1-.3a1.06,1.06,0,0,1,.63-.15c.12,0,.25.11.37,0l.07,0a.31.31,0,0,0,.25,0A10.61,10.61,0,0,1,19.9,5.71l.09,0A.58.58,0,0,1,20.3,6c0,.06.1.07.15.1a.39.39,0,0,1,.17.11l.63.52a.73.73,0,0,1,.22.21.13.13,0,0,0,.11.11,1,1,0,0,1,.21.2h0a1.57,1.57,0,0,1,.3.33,11.38,11.38,0,0,1,2,3.08,5.78,5.78,0,0,1,.34,1c0,.1,0,.22.1.29a.06.06,0,0,1,0,0c0,.11,0,.24.09.33a12.84,12.84,0,0,1,.28,1.4A11.27,11.27,0,0,1,24,19.85a1.45,1.45,0,0,0-.09.22c-.06.19,0,.41-.25.53l-.09,0c0,.05-.16.07,0,.15a1.64,1.64,0,0,1-.47.71l-.95,1.17a1.23,1.23,0,0,1-.49.52c-.45.42-.93.79-1.41,1.16a.39.39,0,0,1-.17.11h0c0,.07-.1.08-.16.11a1.31,1.31,0,0,0-.36.21c0,.06-.11.07-.17.1h0a1,1,0,0,1-.42.22h0a.82.82,0,0,1-.44.21,12.78,12.78,0,0,1-2.33.71,10.35,10.35,0,0,1-2.94.15l-.45,0C12.65,26.09,12.5,26.22,12.38,26.1Z"/><path class="cls-53" d="M8.78,24.8l1.23.61a.51.51,0,0,1-.4-.05A.55.55,0,0,0,9,25.3c-.09.05-.44-.25-.42-.34S8.77,24.91,8.78,24.8Z"/><path class="cls-54" d="M13.43,27a3.08,3.08,0,0,1-1-.11,2.16,2.16,0,0,1,.84-.11C13.38,26.8,13.45,26.85,13.43,27Z"/><path class="cls-55" d="M23.05,21.5l.43-.73s0-.09.05-.12,0,0,.06,0a1.09,1.09,0,0,0,0,.26c0,.11,0,.14-.07.09s-.09,0-.09,0C23.51,21.39,23.17,21.34,23.05,21.5Z"/><path class="cls-55" d="M23.6,20.56l.29-.49a.8.8,0,0,0,0,.15c.07.29,0,.37-.33.46v0S23.54,20.58,23.6,20.56Z"/><path class="cls-56" d="M12.47,4.17l-.67.1c.1-.2.3-.19.47-.2s.4,0,.6,0c0,0,0,0,0,0h0C12.74,4.25,12.59,4.12,12.47,4.17Z"/><path class="cls-57" d="M25.75,13.58a.7.7,0,0,0,.05.32v0a.49.49,0,0,1-.11-.69Z"/><path class="cls-58" d="M6.78,6.71c-.22,0-.24-.25-.43-.26a.2.2,0,0,1,.05-.16.1.1,0,0,1,.15,0l.23.37Z"/><path class="cls-55" d="M22.1,7.56l-.3-.33a.15.15,0,0,0,.2,0c.05-.06.13-.08.18,0a.08.08,0,0,1-.05.14C21.94,7.39,22.14,7.49,22.1,7.56Z"/><path class="cls-59" d="M21.61,23.19l.49-.52A.7.7,0,0,1,21.61,23.19Z"/><path class="cls-60" d="M18.49,25.31a1.27,1.27,0,0,1,.44-.21C18.86,25.33,18.68,25.32,18.49,25.31Z"/><path class="cls-61" d="M8.58,5.55a1.58,1.58,0,0,1-.42.27C8.22,5.61,8.39,5.56,8.58,5.55Z"/><path class="cls-62" d="M4.66,9.67c.21.25-.1.22-.17.31A.73.73,0,0,1,4.66,9.67Z"/><path class="cls-63" d="M3.32,16.44c.22.1.17.23.06.38A1.59,1.59,0,0,1,3.32,16.44Z"/><path class="cls-60" d="M18.93,25.1a1.3,1.3,0,0,1,.42-.22A.4.4,0,0,1,18.93,25.1Z"/><path class="cls-64" d="M4.23,19.71a.44.44,0,0,1,.21.44A1.19,1.19,0,0,1,4.23,19.71Z"/><path class="cls-65" d="M12.38,26.1a.86.86,0,0,1,.39,0C12.64,26.13,12.48,26.3,12.38,26.1Z"/><path class="cls-66" d="M20.3,6,20,5.76A.27.27,0,0,1,20.3,6Z"/><path class="cls-57" d="M25.65,12.89v.16c-.06-.09-.07-.23-.22-.27h.18Z"/><path class="cls-64" d="M4.14,19.5c.18,0,.19.09.09.22A.47.47,0,0,1,4.14,19.5Z"/><path class="cls-58" d="M7,6.72a.74.74,0,0,1-.23.2V6.71h0C6.85,6.75,6.93,6.71,7,6.72Z"/><path class="cls-67" d="M24.53,11.89s-.09.09-.1,0a2.61,2.61,0,0,1,0-.28A.63.63,0,0,1,24.53,11.89Z"/><path class="cls-68" d="M12.85,4.12a.08.08,0,0,0,0,0h.25A.18.18,0,0,1,12.85,4.12Z"/><path class="cls-55" d="M21.79,7.23,21.58,7A.23.23,0,0,1,21.79,7.23Z"/><path class="cls-55" d="M21.47,6.92l-.22-.21A.24.24,0,0,1,21.47,6.92Z"/><path class="cls-67" d="M24.63,12.26c-.13-.08-.1-.21-.09-.33A.74.74,0,0,1,24.63,12.26Z"/><path class="cls-60" d="M19.34,24.88a.23.23,0,0,1,.17-.1C19.57,25,19.41,24.87,19.34,24.88Z"/><path class="cls-64" d="M4,19.23c.07.06.16.11.08.22A.39.39,0,0,1,4,19.23Z"/><path class="cls-69" d="M19.87,24.57a.23.23,0,0,1,.16-.11C20.08,24.65,19.93,24.54,19.87,24.57Z"/><path class="cls-61" d="M8.16,5.82A.54.54,0,0,1,7.94,6C8,5.85,8.05,5.83,8.16,5.82Z"/><path class="cls-69" d="M20,24.46a.28.28,0,0,1,.17-.11C20.18,24.45,20.11,24.47,20,24.46Z"/><path class="cls-62" d="M4.76,9.51c.06.11,0,.13-.1.16A.21.21,0,0,1,4.76,9.51Z"/><path class="cls-66" d="M20.62,6.19a.28.28,0,0,1-.17-.11C20.54,6.07,20.61,6.09,20.62,6.19Z"/><path class="cls-70" d="M17.66,19.66v1.53a.87.87,0,0,1,0,.53v1.73c0,.2,0,.29-.26.28a2,2,0,0,0-.6,0c-.15,0-.06-.13-.09-.2s0-.37-.08-.55a1,1,0,0,1,.14-.8,3.24,3.24,0,0,0,.28-.47c.11-.2.1-.23-.12-.27a.41.41,0,0,1-.18-.05.29.29,0,0,1-.12-.29v-.78a.39.39,0,0,0-.05-.28A6.89,6.89,0,0,1,16.32,19c0-1.86,0-3.73,0-5.59a1.84,1.84,0,0,1,.16-.61c.1-.19.3-.14.44-.21s.1-.26.06-.41A.2.2,0,0,1,17,12a.54.54,0,0,1,.09-.12,1.23,1.23,0,0,0,0-.78.56.56,0,0,0-.42-.06c-.08,0-.16,0-.24,0s-.06-.21-.07-.32a14.77,14.77,0,0,0,0-1.49.77.77,0,0,1,.36-.77.26.26,0,0,0,.17-.26,1.23,1.23,0,0,0-.05-.71.5.5,0,0,1-.12-.41c0-.12,0-.27-.12-.35a.75.75,0,0,0-.39-.06H14a.67.67,0,0,1-.34,0,.17.17,0,0,1-.09-.15,7,7,0,0,1,0-1c0-.07,0-.14.12-.13a.66.66,0,0,1,.43,0c.92.12,1.85,0,2.78,0h.55c.13,0,.21,0,.2.18a3.46,3.46,0,0,1-.1,1.24,10.87,10.87,0,0,0,0,1.51,1.61,1.61,0,0,0,.15.53.11.11,0,0,1,0,.08v2a.09.09,0,0,1,0,.15.13.13,0,0,0-.09.12,3.21,3.21,0,0,0,.08,1.11,1.47,1.47,0,0,1,0,.47V13.9a.29.29,0,0,1,.08.23v1.75a.21.21,0,0,1-.08.18v2.75l.05.06a.22.22,0,0,1,0,.11c-.07.19-.21.37,0,.57v0A.09.09,0,0,1,17.66,19.66Z"/><path class="cls-71" d="M9.63,11V5.34a.4.4,0,0,1,.3-.06h2.8c.41,0,.41,0,.51.35s0,.5,0,.74-.06.31-.32.31c-.57,0-1.15,0-1.73,0-.31,0-.61,0-.91,0-.12,0-.12.13-.07.22,0,.31,0,.61,0,.92-.21.11-.2.24-.06.41s.15.32.29.43a.16.16,0,0,1,0,.08.73.73,0,0,1,.11.4c0,.61,0,1.22,0,1.82a1.33,1.33,0,0,1-.5,1.17.3.3,0,0,1-.38,0,.17.17,0,0,1,0-.15.1.1,0,0,1,0,0,.27.27,0,0,0,.15-.05l.12-.09a.41.41,0,0,0,.15-.17l.05-.05a.35.35,0,0,0,.1-.45A.25.25,0,0,0,9.94,11a.53.53,0,0,1-.25.05Z"/><path class="cls-71" d="M9.63,21.4v-9c.18,0,.16.13.24.2a.21.21,0,0,0,.1.06c.34.06.47.24.53.7a2.8,2.8,0,0,1,0,.29V18a6.75,6.75,0,0,1-.19,1.9,4.11,4.11,0,0,0-.07,1.21C10.23,21.49,10,21.61,9.63,21.4Z"/><path class="cls-72" d="M13.28,5.29h.25l0,0a7.36,7.36,0,0,1,0,1c0,.21.07.29.29.29h2.39c.35,0,.4,0,.39.39s0,.39,0,.58a.33.33,0,0,0,.13.3.17.17,0,0,1-.06.26.19.19,0,0,1-.18,0,.42.42,0,0,1-.2-.52,2,2,0,0,0,0-.42A.36.36,0,0,0,16,6.88a18.09,18.09,0,0,0-1.95,0,1.07,1.07,0,0,1-.4,0,.43.43,0,0,0-.42.06c-.08.08-.19,0-.3,0a9.08,9.08,0,0,0-2.21-.08c-.23,0-.31.13-.3.37a1.68,1.68,0,0,1-.09.83c-.06.14,0,.25.13.34a.18.18,0,0,1,0,.07c.14.26.31.51.17.82a4.38,4.38,0,0,0,0,1.4,1.11,1.11,0,0,0,.07.16c0,.19,0,.39,0,.59a.34.34,0,0,1-.14.26.19.19,0,0,1-.13,0,.14.14,0,0,1,0-.09.62.62,0,0,0,.05-.33v-2a1.13,1.13,0,0,0-.12-.63h0A2.43,2.43,0,0,1,10,8.14c-.15-.2.12-.19.17-.3a2.89,2.89,0,0,1,0-.72c0-.14-.11-.31,0-.42s.29,0,.44,0c.76,0,1.52,0,2.29,0,.22,0,.29-.08.27-.29a7.48,7.48,0,0,0,0-.82A.28.28,0,0,1,13.28,5.29Z"/><path class="cls-73" d="M16.64,23.56c-.05.08-.07.17-.21.17h-6a.49.49,0,0,1-.26-.19.12.12,0,0,1,0-.11,1,1,0,0,0,.07-.24c0-.17.11-.19.25-.11a1.34,1.34,0,0,1,.2.21.6.6,0,0,0,.48.23c1.23,0,2.46,0,3.69,0a9.07,9.07,0,0,1,1.28-.06c.16,0,.2-.1.25-.21.21-.14.3,0,.4.16A.19.19,0,0,1,16.64,23.56Z"/><path class="cls-74" d="M17.66,15.91v-1.8c.05-.07,0-.17.11-.21l.1-.06a.4.4,0,0,1,.32,0c.21.08.22.26.22.46s-.06.28.15.29.21-.13.22-.29c0-.37.1-.47.41-.47s.34.1.34.36c0,.52,0,1,0,1.56,0,.15,0,.32-.2.35s-.42.08-.5-.2a.94.94,0,0,1,0-.41c0-.16-.06-.2-.19-.23s-.22.09-.22.27,0,.45-.2.58a.5.5,0,0,1-.32,0h-.05A.29.29,0,0,1,17.66,15.91Z"/><path class="cls-75" d="M10.05,23.5c0,.11,0,.22-.15.22s-.26-.07-.26-.2c0-.55,0-1.1,0-1.69.2.17.17.46.42.52s.29.29.22.6a1.11,1.11,0,0,1-.08.3A.58.58,0,0,0,10.05,23.5Z"/><path class="cls-76" d="M17.66,21.72a.7.7,0,0,1,0-.53,3.73,3.73,0,0,1,1.56-.08c.2,0,.26.18.26.34a.32.32,0,0,1-.28.36c-.25,0-.28.15-.27.35s0,.56,0,.85-.07.42-.42.45c-.11,0-.25,0-.32-.16h0a7.36,7.36,0,0,1,0-1.15c0-.33,0-.34-.33-.35a.15.15,0,0,1-.07,0Z"/><path class="cls-77" d="M17.66,8.83a.91.91,0,0,1-.21-.63c0-.4,0-.8,0-1.2a.26.26,0,0,1,.13-.24l.1,0a.48.48,0,0,1,.53.11h0a.61.61,0,0,1,.08.38,8.84,8.84,0,0,0,0,1.15V8.4c.05.06.14.07.21.1s.14-.07.2-.1,0-.22.06-.32V7a.65.65,0,0,1,.05-.21h0a.48.48,0,0,1,.53-.11h0c.06,0,.1.08.08.16l-.06,0a.39.39,0,0,1-.15,0,.2.2,0,0,0-.26.05,2.48,2.48,0,0,0,0,.94,2.32,2.32,0,0,1,0,.37.47.47,0,0,1-.92.09,1.35,1.35,0,0,1,0-.49A2.42,2.42,0,0,0,18,7c-.05-.08-.12-.14-.22-.1a.22.22,0,0,0-.15.22,5.16,5.16,0,0,0,.06,1.3,1,1,0,0,1,0,.35A.14.14,0,0,1,17.66,8.83Z"/><path class="cls-78" d="M9.79,12.63c-.08-.07,0-.22-.16-.26l0-.22c.1-.05.21,0,.31,0l0,0c0,.1-.07.13-.1.19s0,.07.06.09.34,0,.41.22a2.86,2.86,0,0,1,.19,1.08v4.3a5.38,5.38,0,0,1-.08,1.33,5,5,0,0,0-.21,1.67c0,.49-.18.61-.66.42V21.4c.61,0,.54.07.52-.51a6.33,6.33,0,0,1,.21-1.74,4.56,4.56,0,0,0,.05-1c0-1.49,0-3,0-4.46a2.07,2.07,0,0,0-.14-.74c0-.14-.11-.19-.24-.18a.21.21,0,0,1-.2-.05c.08-.06.18,0,.29,0s-.05,0,0,0,0,0,0,0A.61.61,0,0,1,9.79,12.63Z"/><path class="cls-79" d="M13.28,5.29c0,.38,0,.77,0,1.15,0,.21-.07.26-.26.26H10.48c-.2,0-.27,0-.27.26a2.93,2.93,0,0,1-.05,1,.05.05,0,0,1,0,0s0,0,0,0c-.15-.24,0-.49,0-.74a.78.78,0,0,1,0-.21.17.17,0,0,1,0-.21c0-.13.15-.1.24-.1.84,0,1.67,0,2.51,0,.2,0,.29-.05.27-.27s0-.46,0-.69-.09-.26.05-.37Z"/><path class="cls-80" d="M13.22,5.28c-.09.12,0,.25-.05.37,0-.32-.24-.32-.49-.32h-3c0-.12.06-.12.15-.12h2.58a1,1,0,0,0,.51-.08A.24.24,0,0,1,13.22,5.28Z"/><path class="cls-81" d="M9.63,21.47c.59,0,.6,0,.59-.61a4.37,4.37,0,0,1,.19-1.48.2.2,0,0,1,.08.23,7.63,7.63,0,0,0-.1,1.65.39.39,0,0,1,0,.21c-.07.17-.25.16-.4.22,0,.17.18.29.15.47a.1.1,0,0,1-.06.09A2.56,2.56,0,0,1,9.63,21.47Z"/><path class="cls-82" d="M18.18,17.53a.39.39,0,0,1,.44-.25.45.45,0,0,1,.45.3c.2.53.33,1.09.58,1.6a.23.23,0,0,1-.07.33l-.07,0c-.12-.57-.37-1.1-.54-1.65a.66.66,0,0,0-.21-.29.27.27,0,0,0-.32,0c-.07,0-.12.09-.2.07A.1.1,0,0,1,18.18,17.53Z"/><path class="cls-83" d="M19,12c.14-.1.28-.16.41,0a.48.48,0,0,1,0,.58c-.36.34-1.39.36-1.65-.27a.14.14,0,0,1,.14,0c.14.08.23.22.39.27a.67.67,0,0,0,.57,0H19a.43.43,0,0,0,.24-.1.24.24,0,0,0-.09-.43C19.11,12.06,19.06,12.05,19,12Z"/><path class="cls-84" d="M17.65,11v-.15a1.18,1.18,0,0,1,1.27-.64.58.58,0,0,1,.48.26s-.05.08-.11.09l-.1,0a.43.43,0,0,0-.21-.09.92.92,0,0,0-1.14.49.2.2,0,0,1-.12.15.07.07,0,0,1-.07,0A.43.43,0,0,1,17.65,11Z"/><path class="cls-85" d="M19,12c.18,0,.4-.07.42.23s-.13.4-.43.45c0-.14.12-.15.18-.23s.11-.13.07-.21-.12-.06-.2,0c-.25.05-.52.11-.71-.12a1,1,0,0,1-.11-.88c0-.09.07-.18.19-.17a.08.08,0,0,1,0,.12c-.06.06,0,.14-.05.21a.59.59,0,0,0,0,.37c0,.16.1.24.21.32A.54.54,0,0,0,19,12Z"/><path class="cls-86" d="M10.05,22.25v-.11a.16.16,0,0,1,.23.06,1.35,1.35,0,0,1,.17.79.14.14,0,0,1-.08.1c-.09,0-.11,0-.1.09a.37.37,0,0,1-.12.3c-.14-.05-.18-.12-.05-.23a.86.86,0,0,0,0-.9Z"/><path class="cls-87" d="M18.4,19.18c-.17.13-.17.41-.42.47s-.22,0-.32,0h0a.08.08,0,0,1,0-.11.55.55,0,0,0,.56-.38c.08-.2.65-.16.77,0a1.16,1.16,0,0,1,.18.37.11.11,0,0,1-.08.09.61.61,0,0,1-.27-.41A.61.61,0,0,0,18.4,19.18Z"/><path class="cls-88" d="M17.66,8.83V8.7a.26.26,0,0,1,.22.07,1,1,0,0,0,1,.15.31.31,0,0,1,.28,0c.06.06,0,.09,0,.13a1.22,1.22,0,0,1-1.43-.16Z"/><path class="cls-89" d="M18.18,17.53l.07,0c.1.09,0,.19,0,.28-.16.37-.26.76-.4,1.14,0,.09-.05.2-.18.23s0,0-.05-.06a.25.25,0,0,1,0-.17v-.1c.1-.08.08-.22.15-.32A8.8,8.8,0,0,1,18.18,17.53Z"/><path class="cls-90" d="M16.64,23.56l.08-.14a.92.92,0,0,1-.19-.78c0-.17,0-.35.26-.41l0,0a.74.74,0,0,1-.07.21.66.66,0,0,0,0,.68.33.33,0,0,1-.06.42Z"/><path class="cls-91" d="M18.45,11.15V11c.06-.22.17-.27.46-.23a1.15,1.15,0,0,1,.17.06c.18.05.24,0,.21-.19,0,0,0-.08,0-.11l.09-.06.05.11a.44.44,0,0,1,0,.32l-.06.1c-.06,0-.12.12-.21.06a.19.19,0,0,1-.16,0c-.11-.06-.23-.13-.36-.06Z"/><path class="cls-92" d="M19.45,6.88l-.05-.17a.22.22,0,0,1,.16.24c0,.48,0,1,0,1.43a.33.33,0,0,1-.1.24l-.06-.07c0-.53,0-1.05,0-1.58A.15.15,0,0,1,19.45,6.88Z"/><path class="cls-93" d="M17.77,21.77a1.47,1.47,0,0,0,.21,0c.16,0,.21.06.21.22V23.3a2.86,2.86,0,0,1-.05-.88,1.4,1.4,0,0,1,0-.29c0-.21,0-.34-.28-.31C17.83,21.82,17.8,21.79,17.77,21.77Z"/><path class="cls-92" d="M18.3,8.35c-.11-.16-.05-.34-.06-.51a5,5,0,0,0,0-1c.11.06.1.17.1.27C18.29,7.51,18.29,7.93,18.3,8.35Z"/><path class="cls-94" d="M9.68,12h0a.16.16,0,0,1-.09-.24A1.48,1.48,0,0,0,9.63,11h0A1.21,1.21,0,0,1,9.68,12Z"/><path class="cls-95" d="M17.88,12.36l-.11,0a1.61,1.61,0,0,1-.12-1.12c.09.05.08.12.09.2a2.46,2.46,0,0,0,.12.71C17.89,12.18,18,12.27,17.88,12.36Z"/><path class="cls-96" d="M13.7,5.34a3.14,3.14,0,0,0,0,1.26c-.15.06-.13,0-.13-.14,0-.31,0-.62,0-.93,0-.08,0-.17,0-.24h0C13.61,5.21,13.66,5.27,13.7,5.34Z"/><path class="cls-97" d="M19.46,8.56v.06a.52.52,0,0,1-.37.42l.05-.12a.4.4,0,0,1,.21-.39A.11.11,0,0,1,19.46,8.56Z"/><path class="cls-98" d="M18.61,15.27c.16,0,.22.06.21.22v.42a.47.47,0,0,1,0-.35A.29.29,0,0,0,18.61,15.27Z"/><path class="cls-68" d="M12.47,4.17a.82.82,0,0,1,.38,0C12.76,4.38,12.61,4.22,12.47,4.17Z"/><path class="cls-99" d="M10.1,23.25c-.08.1,0,.17.05.23l0,0c.09.05.07.12,0,.2s-.06-.18-.17-.22S9.87,23.29,10.1,23.25Z"/><path class="cls-92" d="M19.35,6.71a.84.84,0,0,0-.53.11C19,6.58,19.16,6.64,19.35,6.71Z"/><path class="cls-92" d="M18.19,6.82a.81.81,0,0,0-.53-.11C17.86,6.64,18.05,6.58,18.19,6.82Z"/><path class="cls-82" d="M19.09,19.6l.06-.06a.43.43,0,0,1,.41-.05l0,0a.15.15,0,0,1-.12.1.58.58,0,0,1-.32,0Z"/><path class="cls-86" d="M10.22,23.72l0-.2c.09.05.2.09.24.2Z"/><path class="cls-83" d="M19,12a.35.35,0,0,1-.43.05Z"/><path class="cls-100" d="M18.67,11a.25.25,0,0,1,.36.06Z"/><path class="cls-101" d="M17.82,18.55c0,.12,0,.26-.15.32v-.06Z"/><path class="cls-102" d="M18.4,19.18a.4.4,0,0,1,.42,0Z"/><path class="cls-93" d="M18.19,23.3l.32.16C18.38,23.46,18.24,23.47,18.19,23.3Z"/><path class="cls-91" d="M18.4,11.73a.35.35,0,0,1,0-.37Z"/><path class="cls-103" d="M23.6,20.56l0,.1-.1.11C23.34,20.6,23.54,20.62,23.6,20.56Z"/><path class="cls-52" d="M18.29,13.23c-.07,0-.12,0-.2,0C18.18,13.14,18.23,13.23,18.29,13.23Z"/><path class="cls-104" d="M17.66,19.6c.11,0,.22,0,.32,0h-.32Z"/><path class="cls-92" d="M18.77,8.08c0,.11,0,.23-.06.32C18.73,8.29,18.69,8.18,18.77,8.08Z"/><path class="cls-92" d="M18.82,6.82a.27.27,0,0,1-.05.21C18.7,6.93,18.77,6.88,18.82,6.82Z"/><path class="cls-98" d="M17.87,16.12h.32A.27.27,0,0,1,17.87,16.12Z"/><path class="cls-98" d="M17.66,15.91l.16.2-.16-.05Z"/><path class="cls-102" d="M19.14,19.61h.32A.27.27,0,0,1,19.14,19.61Z"/><path class="cls-100" d="M19.46,10.94v-.32A.26.26,0,0,1,19.46,10.94Z"/><path class="cls-98" d="M18.19,13.85h-.32A.26.26,0,0,1,18.19,13.85Z"/><path class="cls-105" d="M17.67,11.42v-.33h0C17.81,11.22,17.84,11.33,17.67,11.42Z"/><path class="cls-100" d="M19.19,11.1,19.4,11C19.35,11.13,19.29,11.18,19.19,11.1Z"/><path class="cls-98" d="M17.77,13.9l-.11.21V13.9Z"/><path class="cls-92" d="M18.51,8.5a.18.18,0,0,1-.21-.1A.35.35,0,0,1,18.51,8.5Z"/><path class="cls-64" d="M4.3,19.44a.2.2,0,0,1,0-.08s0-.05,0,0,0,0,0,0A.2.2,0,0,1,4.3,19.44Z"/><path class="cls-106" d="M17,12.15c.18.16,0,.32,0,.48s-.34,0-.47.1a3,3,0,0,0-.17,1.11c0,1.73,0,3.45,0,5.18,0,.06.06.13,0,.17a.38.38,0,0,1-.16-.37v-5.4a3.27,3.27,0,0,1,.2-.76.3.3,0,0,1,0-.08c.1-.15.32,0,.44-.17-.08-.1-.22-.12-.3-.23l-.05,0a.76.76,0,0,0-.12-.19s0,0,0-.08a.15.15,0,0,1,.06-.09.15.15,0,0,1,.16.06A.86.86,0,0,0,17,12.15Z"/><path class="cls-107" d="M16.73,8.14c.06,0,.07-.1.08-.16a.33.33,0,0,1-.06-.1,1.49,1.49,0,0,1,0-.21c0-.08-.07-.19.09-.22s.1.13.1.21v.61c0,.15,0,.29-.23.27-.08,0-.2.19-.27.31a1.23,1.23,0,0,0-.08.29,9.55,9.55,0,0,1,0,1.31,7.3,7.3,0,0,0,.07.94.17.17,0,0,1,0,.1.16.16,0,0,1-.09.11h-.1c-.1-.07-.08-.18-.08-.29,0-.72,0-1.44,0-2.16A1.58,1.58,0,0,1,16.73,8.14Z"/><path class="cls-52" d="M16.82,7.87V8c-.19,0-.24-.07-.23-.25s0-.51,0-.76-.05-.29-.28-.28c-.83,0-1.67,0-2.5,0-.21,0-.29-.06-.28-.28,0-.38,0-.76,0-1.13.12.13.05.3.06.45s0,.43,0,.65,0,.18.11.21h2.62a.39.39,0,0,1,.34.11c.06.35,0,.71.09,1A.21.21,0,0,0,16.82,7.87Z"/><path class="cls-90" d="M16.39,19.2V19c.13.34.11.72.26,1.06a7.65,7.65,0,0,1,0,1.07c0,.1,0,.22.13.24.52,0,.53,0,.27.48a.93.93,0,0,1-.26.39l0,0c-.07-.19.07-.31.14-.46s.07-.22-.14-.25-.32-.07-.33-.36a6.88,6.88,0,0,0,0-1.2,4.59,4.59,0,0,0-.1-.51C16.32,19.37,16.3,19.27,16.39,19.2Z"/><path class="cls-106" d="M16.45,11c.23,0,.47-.13.68.06a3,3,0,0,1,0,.89l-.1.06a.1.1,0,0,1-.17,0c0-.09.08-.12.11-.19a1.26,1.26,0,0,0,0-.47.22.22,0,0,0-.2-.24c-.14,0-.18.08-.21.19s0,.14-.07.19a.09.09,0,0,1-.13,0h0A.59.59,0,0,1,16.45,11Z"/><path class="cls-108" d="M16.45,11l-.06.43c-.08-.09-.05-.2-.05-.31v-2c.07.08.05.18.05.28v1.35C16.39,10.86,16.37,11,16.45,11Z"/><path class="cls-108" d="M16.88,12c0,.07.09.07.15.07v.1a.35.35,0,0,1-.4-.19.32.32,0,0,0-.19-.17h0c0-.06-.12-.12-.06-.21l.05-.1.12,0h0a1.74,1.74,0,0,1,.34.43Z"/><path class="cls-109" d="M16.71,7.87A2.82,2.82,0,0,1,16.66,7a2.81,2.81,0,0,1,0-.29c.06,0,.13,0,.1.12a.84.84,0,0,0,.06.62c-.08.07,0,.14,0,.21S16.78,7.82,16.71,7.87Z"/><path class="cls-110" d="M16.81,21.39c-.16,0-.15-.1-.15-.21v-1.1s0,0,0,0,0,0,0,0c0,.34,0,.68,0,1A.35.35,0,0,0,16.81,21.39Z"/><path class="cls-111" d="M17.13,12V11.1A1.36,1.36,0,0,1,17.13,12Z"/><path class="cls-104" d="M17.66,19v.16c0,.11,0,.22,0,.33v.14C17.45,19.42,17.45,19.3,17.66,19Z"/><path class="cls-112" d="M16.56,12.73c.12-.2.32-.05.47-.1C16.89,12.73,16.71,12.66,16.56,12.73Z"/><path class="cls-113" d="M10,11.88,9.89,12c-.14.1-.17,0-.18-.1s0-.44,0-.66S9.89,11,10,11s.27,0,.29.2a.5.5,0,0,1-.17.45h0A.45.45,0,0,1,10,11.88Z"/><path class="cls-114" d="M10.38,8.71a.55.55,0,0,1,.17.42v2.3a.7.7,0,0,1-.09.29.78.78,0,0,1-.27.43.14.14,0,0,1-.18,0h0c.14-.15.23-.33.38-.47a.37.37,0,0,0,.1-.31c0-.74,0-1.47,0-2.21C10.48,9,10.33,8.88,10.38,8.71Z"/><path class="cls-114" d="M10.15,11.67a.78.78,0,0,0,.11-.2c0-.12.08-.29,0-.37s-.27,0-.41,0l0,0a2.07,2.07,0,0,0,0,.86s0,0,.08,0-.13.09-.21,0V11l.2-.07a.36.36,0,0,1,.47.16A.42.42,0,0,1,10.15,11.67Z"/><path class="cls-115" d="M10.15,7.87v.06c-.15.05-.18.13-.08.27s.2.34.3.51c-.29-.15-.36-.47-.5-.73S10.05,7.89,10.15,7.87Z"/><path class="cls-115" d="M10.15,6.71v.21Q9.94,6.82,10.15,6.71Z"/><path class="cls-114" d="M10,11.88a.52.52,0,0,1,.18-.21A.2.2,0,0,1,10,11.88Z"/><path class="cls-116" d="M9.79,12.63h.34v0H9.84Z"/><path d="M10.37,23.09c.06-.27-.12-.5-.12-.76,0-.09-.1-.16-.2-.19v0c-.1-.15-.28-.33-.26-.46s.33,0,.48-.14.07-.11.07-.18c.06-.5,0-1,.09-1.5a52.06,52.06,0,0,0,.15-6.12,2.37,2.37,0,0,0-.25-1.11c-.22-.2-.24-.28-.09-.53a.87.87,0,0,1,.29-.34l.05-.05c.06-.06.27,0,.11-.21s0-.39.05-.58a.94.94,0,0,1,0-.55.46.46,0,0,0,0-.26c0-.4,0-.8-.06-1.2a.45.45,0,0,1,0-.2.52.52,0,0,0,0-.37c-.15-.27,0-.51.06-.76s.2-.21.35-.21h1.35A.66.66,0,0,0,13,7.22a.26.26,0,0,1,.35,0,.58.58,0,0,0,.47.12c.6,0,1.21,0,1.81,0,.37,0,.46.09.46.45s.07.88,0,1.3,0,1,0,1.56a5.06,5.06,0,0,1,0,1c0,.16.1.27.18.39s.12.29-.1.4c0,0-.08,0-.06.07s-.1.38,0,.56a.24.24,0,0,1,0,.23,1.31,1.31,0,0,0-.09.7v4c0,.11,0,.23.06.33a1.26,1.26,0,0,1,0,.72.32.32,0,0,0,.08.37.28.28,0,0,1,0,.44.74.74,0,0,0-.11.55.47.47,0,0,1,.27-.57c.05,0,.07,0,.09.08a5.79,5.79,0,0,1,0,.93c0,.16-.18.17-.31.27.14,0,.27.1.24.27s-.19.14-.34.16c.06.11.09.22.23.19s.24.1.2.25a.54.54,0,0,0,0,.43c0,.15,0,.29,0,.44s-.15.13-.15.23v0c0,.15,0,.3-.22.32-1.68.13-3.37.09-5.06.1C10.69,23.63,10.58,23.43,10.37,23.09Z"/><path class="cls-117" d="M16.08,18.44c-.13,0-.11-.15-.11-.24,0-1.51,0-3,0-4.54,0-.4,0-.79,0-1.19a.23.23,0,0,1,.07-.2c.06.05.08.21.2.11s0-.16,0-.22a.59.59,0,0,1-.17-.71A.87.87,0,0,0,16,11a7.8,7.8,0,0,1,0-1.6c0-.58-.06-1.15,0-1.72,0-.17-.09-.2-.23-.2H13.46c-.08,0-.24.06-.17-.15,0,0-.06-.06-.1-.06s-.14,0-.15.07-.16.14-.26.14H11.17c-.21,0-.29.06-.28.27s0,.2-.07.26-.05.11,0,.15a.3.3,0,0,1,.07.32,3.63,3.63,0,0,0-.05.93,5.37,5.37,0,0,0,.06.67,3.46,3.46,0,0,1-.16.84l-.11-.06a9.3,9.3,0,0,1,0-1.18,2.55,2.55,0,0,0,0-.39.38.38,0,0,0,0-.46.51.51,0,0,1-.1-.29l0,0,0,0c-.27-.18-.29-.31-.17-.57a1.15,1.15,0,0,0,0-.61c-.07-.4.06-.57.47-.56a14.37,14.37,0,0,1,2,0c.09,0,.18,0,.25.07s.14.06.16,0c.11-.23.29-.16.45-.1a1.58,1.58,0,0,0,.65,0H16a.43.43,0,0,1,.46.47,1.53,1.53,0,0,1-.05.64c0,.08,0,.1.06.12a.2.2,0,0,1,.09.2,1.18,1.18,0,0,1-.26.54.71.71,0,0,0-.13.44v2.18c0,.09,0,.2.06.27s.11.19.18.26h0a.68.68,0,0,0,.17.21h0a.29.29,0,0,0,.25.2c.07,0,.15,0,.13.1s0,.15-.14.16-.24,0-.35,0h0a6.51,6.51,0,0,0-.3.88c0,1.54,0,3.09,0,4.63C16.2,18.22,16.27,18.38,16.08,18.44Z"/><path class="cls-118" d="M16.27,11.69c-.11,0-.09-.16-.09-.25V9.1c0-.32.25-.53.36-.8l.06-.11.13,0a1,1,0,0,1,0,.1,2.15,2.15,0,0,0-.46,1.64c0,.48,0,1,0,1.44,0,.09,0,.18,0,.26a.07.07,0,0,1,0,.07S16.3,11.69,16.27,11.69Z"/><path class="cls-119" d="M10.53,11.73c-.07.18-.25.3-.29.51a.28.28,0,0,0,.08.28l0,0a2.26,2.26,0,0,1-.45,0,.22.22,0,0,1-.06-.23.39.39,0,0,0,.39-.2,1.57,1.57,0,0,1,.3-.38Z"/><path class="cls-117" d="M13.41,5.5v1h-.05v-1Z"/><path class="cls-119" d="M10.59,9.26a5,5,0,0,1,0,1c0,.18,0,.37,0,.55-.1-.16,0-.34-.05-.51C10.58,10,10.59,9.61,10.59,9.26Z"/><path class="cls-119" d="M10.69,11.47c.06,0,.15,0,.17.06a.23.23,0,0,1-.07.19c-.09.09-.13-.05-.21,0A.61.61,0,0,0,10.69,11.47Z"/><path class="cls-120" d="M16.5,21a4.25,4.25,0,0,0-.05-1s0,0,.06,0a3.24,3.24,0,0,1,.06,1.12c0,.41,0,.39.38.37.24,0,.25.06.13.25a2.43,2.43,0,0,0-.28.53c-.27.25-.2.57-.2.88,0,.09.07.12.13.16s.06.1,0,.14-.19-.2-.33-.22h0c-.08-.13.06-.15.11-.21v-.53c0-.24.15-.4.26-.59s.1-.13-.05-.18A.45.45,0,0,1,16.5,21Z"/><path class="cls-121" d="M17.77,14.21c0-.11,0-.25.13-.26s.31-.09.35.15,0,.36.05.54h0c.16.16.35.08.53.06s.07-.11.07-.18a2.47,2.47,0,0,1,0-.47c.07-.17.21-.12.33-.11a.18.18,0,0,1,.19.18c0,.6,0,1.2,0,1.8,0,0,0,0,0,.05a.07.07,0,0,1-.11,0,.15.15,0,0,1,0-.09c0-.44,0-.88,0-1.32a.67.67,0,0,0-.06-.28s-.05-.05-.09,0,0,.39-.1.57l-.07,0a5,5,0,0,1-.67,0c-.23-.08-.19-.28-.2-.46s0-.25-.2-.16A.15.15,0,0,1,17.77,14.21Z"/><path class="cls-122" d="M19.3,15.91l.09.05A.31.31,0,0,1,19,16c-.13,0-.12-.18-.13-.3v-.21c0-.2,0-.33-.27-.33s-.33.12-.31.34a1.21,1.21,0,0,1,0,.19c0,.35-.16.43-.49.26a.19.19,0,0,1,.07-.12c.18-.07.2-.22.2-.39s0-.38.16-.46A1,1,0,0,1,19,15c.16.07.16.23.17.38S19.13,15.77,19.3,15.91Z"/><path class="cls-123" d="M17.88,15.9l-.07.07h0c0-.13,0-.29,0-.42V14.21h.1a.27.27,0,0,1,.11.25c0,.4,0,.79,0,1.18A.35.35,0,0,1,17.88,15.9Z"/><path class="cls-124" d="M18.92,14c0,.13,0,.27,0,.4s0,.27-.11.28-.38.13-.52-.09a.53.53,0,0,0,.28.07c.22,0,.32-.06.3-.3A.64.64,0,0,1,18.92,14Z"/><path class="cls-124" d="M18.3,14.64c-.11-.17,0-.36-.05-.54C18.36,14.27,18.28,14.46,18.3,14.64Z"/><path class="cls-122" d="M17.77,15.54c.09.13,0,.28,0,.42C17.71,15.83,17.77,15.68,17.77,15.54Z"/><path class="cls-125" d="M19.24,21.24a.3.3,0,0,1,.12.32c0,.15-.17.14-.28.14s-.25.1-.25.28c0,.35,0,.71,0,1.06,0,.1,0,.22-.11.26s-.27.08-.33-.1a.49.49,0,0,0,.22-.51q0-.44,0-.87c0-.24.05-.28.3-.36a1.1,1.1,0,0,1-.18,0,.61.61,0,0,0-.4,0c-.11.06-.29-.07-.36.12a.25.25,0,0,1,0,.07.1.1,0,0,1-.08.05c-.05,0-.09,0-.11,0a.69.69,0,0,1,0-.35.07.07,0,0,1,.09,0A9.21,9.21,0,0,1,19.24,21.24Z"/><path class="cls-126" d="M17.87,21.67l.06-.06a.48.48,0,0,1,.45,0,.29.29,0,0,1,.13.27c0,.36,0,.73,0,1.1a.33.33,0,0,1-.11.26c.09.1.23,0,.32.1-.16.06-.33.12-.43-.09a10.1,10.1,0,0,1,0-1.23c0-.21,0-.34-.28-.29a.17.17,0,0,1-.12,0Z"/><path class="cls-127" d="M17.87,21.67c.43,0,.43,0,.43.41s0,.75,0,1.13a4.29,4.29,0,0,1,0-1C18.25,21.77,18.25,21.77,17.87,21.67Z"/><path class="cls-127" d="M19.24,21.24H17.85A5,5,0,0,1,19.24,21.24Z"/><path class="cls-127" d="M17.76,21.28v.35A.32.32,0,0,1,17.76,21.28Z"/><path class="cls-128" d="M19.36,8.56c0,.16-.14.25-.22.36a1.44,1.44,0,0,1-.89.15.93.93,0,0,1-.58-.37.48.48,0,0,1-.07-.29c0-.48,0-1,0-1.43a.05.05,0,0,1,.06-.06c.14.09.11.23.12.36s0,.23.08.34c.15-.23,0-.5.13-.72a.11.11,0,0,1,.11,0,2.92,2.92,0,0,1,.05.83c0,.17,0,.34,0,.5s.16.42.38.41.35-.14.36-.4,0-.76,0-1.13c0-.11,0-.25.14-.26a.45.45,0,0,1,.28,0l.09.07a.65.65,0,0,1,.06.41v1A.49.49,0,0,1,19.36,8.56Z"/><path class="cls-129" d="M18.09,6.86,18,6.93a.26.26,0,0,1-.35.05c-.12,0-.05.15-.05.22,0,.41,0,.81,0,1.21a7,7,0,0,1,0-1.45C17.57,6.76,17.83,6.72,18.09,6.86Z"/><path class="cls-130" d="M19.41,8.35V6.88h.05v0a10.6,10.6,0,0,1,0,1.38S19.45,8.35,19.41,8.35Z"/><path class="cls-130" d="M19.31,6.81H19A.31.31,0,0,1,19.31,6.81Z"/><path class="cls-119" d="M10.32,12.52c.06.08.13.11.23,0,0,.15-.1.23-.08.35s0,.19.16.08.08-.12.14,0,.05.19,0,.22-.16.16-.08.3a.43.43,0,0,1,0,.23c0,1.71,0,3.41,0,5.12a2,2,0,0,1-.13.6,7.17,7.17,0,0,0-.09,1.3,2,2,0,0,1-.2.83,1,1,0,0,0,0-.23,12,12,0,0,1,.1-1.9,5.34,5.34,0,0,0,.08-1.26c0-1.3,0-2.6,0-3.9a4.45,4.45,0,0,0-.18-1.58s0-.08,0-.11Z"/><path class="cls-131" d="M10.16,12.1c-.05.23-.22.22-.39.2,0-.14.22,0,.24-.14Z"/><path class="cls-131" d="M10.31,12.53v.11c-.14-.14-.34,0-.48-.11Z"/><path class="cls-132" d="M19.56,19.49a.82.82,0,0,1-.41.05c0-.05-.11-.1-.12-.16-.07-.34-.32-.32-.58-.3a.22.22,0,0,0-.22.15c-.16.34-.2.36-.56.26h0a.24.24,0,0,1,0-.31c.23-.53.4-1.09.58-1.64l.14-.12a.9.9,0,0,1,.4,0,.42.42,0,0,1,.24.32c.18.48.35,1,.52,1.46A.53.53,0,0,1,19.56,19.49Z"/><path class="cls-133" d="M18.79,17.43h-.4A.43.43,0,0,1,18.79,17.43Z"/><path class="cls-134" d="M17.67,11.42a.61.61,0,0,0,0-.33l.07-.15a.09.09,0,0,1,.14,0,2.36,2.36,0,0,1,0,.65c0,.67.51,1,1.2.72a2.15,2.15,0,0,1-.45.06c-.42-.06-.63-.43-.58-1.05a.7.7,0,0,1,.73-.71l.16,0c.12,0,.12-.05.14-.13a.11.11,0,0,1,.15,0l.05.06a.3.3,0,0,1,0,.38c-.1.13-.22,0-.33,0s-.41-.11-.56.11a.92.92,0,0,0,0,1c.16.22.39.17.61.12s.26-.19.35,0a.32.32,0,0,1-.18.43l-.16.1h-.15a1.17,1.17,0,0,1-.64-.06c-.15,0-.24-.18-.36-.27A2.05,2.05,0,0,1,17.67,11.42Z"/><path class="cls-135" d="M18.24,12.63l.64.06A.67.67,0,0,1,18.24,12.63Z"/><path class="cls-136" d="M17.88,11l-.11-.06A1,1,0,0,1,19,10.4c0,.07,0,.1-.07.13s-.28,0-.42.06a.88.88,0,0,0-.44.27C18.05,10.93,18,11,17.88,11Z"/><path class="cls-137" d="M18.92,10.47,19,10.4a.27.27,0,0,1,.23.11l-.13.05C19,10.62,19,10.6,18.92,10.47Z"/><path class="cls-101" d="M17.67,19.19v.31c-.18-.12-.05-.25,0-.37Z"/><path class="cls-138" d="M19.41,8.35a8.68,8.68,0,0,0,0-1.14,2.81,2.81,0,0,0,0-.29c.1.13.06.27.06.41a6.33,6.33,0,0,1-.05,1.23h-.1C19.32,8.48,19.43,8.43,19.41,8.35Z"/><path class="cls-118" d="M16.51,20h-.06l-.06,0a3.52,3.52,0,0,1-.23-1,2.1,2.1,0,0,1,0-.5c0-1.68,0-3.35,0-5a2.88,2.88,0,0,1,.33-.79,5.42,5.42,0,0,0-.21,2c0,1.38,0,2.75,0,4.13a.93.93,0,0,0,.09.49C16.38,19.46,16.52,19.71,16.51,20Z"/><path class="cls-118" d="M16.5,12.59c.07-.1.17-.07.26-.07s.17,0,.18-.12-.09-.07-.15-.09a.22.22,0,0,1-.18-.22c.1.05.15.18.29.16s.14.05.12.14,0,.17-.15.17Z"/><path class="cls-118" d="M16.62,12.09a.2.2,0,0,1-.17-.21A.39.39,0,0,1,16.62,12.09Z"/><path class="cls-118" d="M16.45,11.88a.31.31,0,0,1-.18-.19l0,0c.1,0,.12.06.15.12h0Z"/><path class="cls-70" d="M16.71,7.87c0-.08,0-.18.11-.21v.21Z"/><path class="cls-106" d="M16.44,11.79l-.15-.12v-.09h.06C16.38,11.64,16.45,11.7,16.44,11.79Z"/><path class="cls-139" d="M16.51,11.51l0-.16c0-.17,0-.3.24-.29s.37,0,.33.29,0,.36,0,.55h0c-.15-.09-.11-.24-.13-.37s.05-.25-.11-.25-.07.16-.1.23a.16.16,0,0,1,0,.07c-.07,0-.09,0-.11-.06Z"/><path class="cls-139" d="M17,11.9c0,.11-.09.08-.16.08h0s0-.05,0-.09.1,0,.16,0Z"/><path class="cls-106" d="M16.85,11.9l0,.09a.93.93,0,0,1-.37-.48l.09.06A.27.27,0,0,1,16.85,11.9Z"/><path class="cls-140" d="M14.54,15.91h0c-.06.06-.05.14-.05.22v2.09c0,.08,0,.16.05.22s0,.14,0,.21-.06.11-.1.16v.05a1,1,0,0,1-.47,0,11.54,11.54,0,0,1-1.44,0,.48.48,0,0,1-.1-.42,7.48,7.48,0,0,1,0-1.16,4.42,4.42,0,0,1,0-1.09.45.45,0,0,0,0-.28,1.49,1.49,0,0,1,.8-1.09,1.07,1.07,0,0,1,1.11.66C14.41,15.6,14.62,15.67,14.54,15.91Z"/><path class="cls-73" d="M16.23,19a4.39,4.39,0,0,1,.16,1s0,.09,0,.11c-.29.19-.18.5-.2.77a.49.49,0,0,1,0,.1.57.57,0,0,1-.06-.45c0-.23-.15-.51.17-.68.06,0-.08-.22-.11-.22-.33,0-.18-.29-.15-.36a2.15,2.15,0,0,0,.09-.75c.08-.1.05-.22.05-.33V13.7c0-.11,0-.23.05-.33.07.07.05.16.05.25v4.82A1.19,1.19,0,0,0,16.23,19Z"/><path class="cls-73" d="M16.5,21v.28c0,.31.05.35.35.32.09,0,.22,0,.13.12a6.06,6.06,0,0,1-.48.76c-.18-.09-.11-.24-.07-.36s.09-.14,0-.23-.16.26-.24.12-.35-.28-.23-.55l.22.07c.07,0,.15,0,.17-.06a.13.13,0,0,0-.14-.15h-.07c-.08,0-.18,0-.19-.1s.08-.11.16-.12S16.36,21,16.5,21Z"/><path class="cls-141" d="M14.54,15.91c0-.19-.22-.25-.25-.43.26.07.38.3.42.64a15,15,0,0,1,0,2.32c-.14,0-.1-.16-.1-.26v-2A.4.4,0,0,0,14.54,15.91Z"/><path class="cls-142" d="M12.06,9.46V9.35c0-.06,0-.16.1-.21h0c.06-.08,0-.23.15-.26a.49.49,0,0,1,.36-.28l0,0c0,.08,0,.13-.06.18a.58.58,0,0,1-.13.14,1.14,1.14,0,0,0,0,1.49l.13.13a.49.49,0,0,0,.32.2,1,1,0,0,0,.79,0c.11,0,.22-.08.32,0a.11.11,0,0,1,0,.12h0a.49.49,0,0,1-.53.2,1.82,1.82,0,0,0-.33,0,.38.38,0,0,1-.41-.21c-.24-.06-.34-.29-.53-.42s0-.16-.1-.22a1.62,1.62,0,0,1-.11-.58A.2.2,0,0,1,12.06,9.46Z"/><path class="cls-128" d="M12.8,10.94a1.55,1.55,0,0,0,1.12,0l.15,0c0,.09.09.05.14.08a.13.13,0,0,1,.06.14.1.1,0,0,1-.11.09H12.72a.12.12,0,0,1-.13-.11c0-.08,0-.11.11-.11S12.79,11,12.8,10.94Z"/><path class="cls-141" d="M14.69,18.44c.2,0,.23-.09.23-.24,0-.7,0-1.4,0-2.13a.26.26,0,0,1,.1.22,14.56,14.56,0,0,1,0,1.87,1,1,0,0,0,0,.34c0,.08,0,.18-.05.23s-.12-.09-.16-.15Z"/><path class="cls-141" d="M12.48,18.86a7.63,7.63,0,0,1,1.91,0c0,.12-.12.13-.21.13l-1.49,0C12.61,19,12.51,19,12.48,18.86Z"/><path class="cls-141" d="M12.38,15.91a.25.25,0,0,1,0,.19v2.14a.28.28,0,0,1,0,.2.83.83,0,0,1,0-.78c0-.06,0-.13,0-.2s-.08-.16-.06-.22c.14-.36-.07-.74.09-1.1A1.77,1.77,0,0,0,12.38,15.91Z"/><path class="cls-141" d="M14.49,18.44c-.13,0-.1-.15-.1-.24,0-.68,0-1.37,0-2.06,0-.09,0-.2.1-.23Z"/><path class="cls-141" d="M14.23,19.19c-.53-.12-1.06.28-1.58-.08h1.58Z"/><path class="cls-142" d="M12.68,8.6c-.06-.23.17-.25.27-.27a1.44,1.44,0,0,1,1.23.27.1.1,0,0,1,0,.06.25.25,0,0,1-.12,0l-.07,0a1.07,1.07,0,0,0-1-.05c-.09,0-.17.1-.27,0Z"/><path class="cls-128" d="M14.07,10.94v-.12c0-.24.24-.33.39-.47a.14.14,0,0,1,.15,0l.23.34s.07.06,0,.1-.08,0-.12,0a.33.33,0,0,1-.15-.24C14.35,10.63,14.29,10.88,14.07,10.94Z"/><path class="cls-143" d="M14.6,10.36l-.11.05a.13.13,0,0,1-.05-.12,1.41,1.41,0,0,0,0-1.14.25.25,0,0,1,0-.12A.09.09,0,0,1,14.51,9,1.36,1.36,0,0,1,14.6,10.36Z"/><path class="cls-140" d="M13.17,14.53c.1,0,.25,0,.24.1s-.17.1-.27.11-.23,0-.21-.11S13.1,14.56,13.17,14.53Z"/><path class="cls-144" d="M12.32,8.88l-.15.26a.58.58,0,0,0,0-.18c0-.07-.12-.16,0-.22S12.3,8.76,12.32,8.88Z"/><path class="cls-144" d="M12.17,10.3a.23.23,0,0,1,.1.22c0,.09-.06.21-.17.16s0-.13,0-.2A.53.53,0,0,0,12.17,10.3Z"/><path class="cls-119" d="M10.58,12.25c0,.08,0,.16-.11.16s-.07-.07-.08-.11a.14.14,0,0,1,.12-.15C10.59,12.13,10.57,12.21,10.58,12.25Z"/><path class="cls-144" d="M12,10.2s.1,0,.1.06-.06.12-.14.13-.08,0-.08-.08S11.91,10.21,12,10.2Z"/><path class="cls-140" d="M14.27,14.85a.09.09,0,0,1-.1.09c-.07,0-.09,0-.09-.1a.09.09,0,0,1,.09-.08C14.23,14.75,14.26,14.78,14.27,14.85Z"/><path class="cls-145" d="M16.18,22.67c0,.12,0,.25-.06.37,0-.13-.12-.27.06-.37Z"/><path class="cls-140" d="M12.67,14.76q.11,0,.09.12a.08.08,0,0,1-.16,0A.07.07,0,0,1,12.67,14.76Z"/><path class="cls-143" d="M14.11,8.62l.07,0a1.17,1.17,0,0,1,.33.37l0,0c-.1,0-.16-.05-.22-.09l-.06-.05C14.16,8.78,14.07,8.72,14.11,8.62Z"/><path class="cls-73" d="M16.5,23l-.11.21c-.07,0-.11-.06-.09-.13S16.42,23,16.5,23Z"/><path class="cls-73" d="M16.08,23.4s-.08,0-.07-.06a.27.27,0,0,1,.11-.1s.05,0,.05.07A.08.08,0,0,1,16.08,23.4Z"/><path class="cls-144" d="M12.06,9.46v.26C11.93,9.63,11.81,9.54,12.06,9.46Z"/><path class="cls-119" d="M10.85,12.27s0,0,0-.07a.11.11,0,0,1,0-.09s.05,0,.05.05S10.9,12.25,10.85,12.27Z"/><path class="cls-140" d="M13.85,14.71l-.17-.12.05,0C13.8,14.55,13.84,14.59,13.85,14.71Z"/><path class="cls-119" d="M10.85,11.22a.07.07,0,0,1,0-.09.09.09,0,0,1,0,0s0,.05,0,.08Z"/><path class="cls-144" d="M12.06,9.14c-.06,0-.12,0-.18-.06S12,9,12.06,9.14Z"/><path class="cls-73" d="M16.18,22.67a.27.27,0,0,1,.08-.21c0,.12,0,.18-.08.21Z"/><path class="cls-141" d="M14.39,18.81c0-.1,0-.14.1-.16S14.48,18.8,14.39,18.81Z"/><path class="cls-144" d="M12.16,9.14a.28.28,0,0,1-.1.21V9.14Z"/><path d="M10.46,8.2s.08,0,.07.05l0,0s-.07,0-.07,0S10.44,8.21,10.46,8.2Z"/><path d="M10.47,8.51c0-.07,0-.12.13-.09s0,0,0,0-.1,0-.16,0Z"/><path d="M16.17,12.87s0,.05-.05,0a.05.05,0,0,1,0,0s0-.06.05,0Z"/><path class="cls-146" d="M17.88,15.9c0-.56,0-1.12,0-1.69,0-.12.06-.16.18-.15s.13.08.14.18-.06.38,0,.56a2.3,2.3,0,0,0,.74,0h0c.08-.24,0-.49.06-.73h.26a12.69,12.69,0,0,1,0,1.85h0c-.21,0-.27-.05-.27-.26,0-.66.13-.58-.65-.59-.15,0-.2.07-.19.21s0,.23,0,.34S18.12,16,17.88,15.9Z"/><path class="cls-122" d="M19.3,15.91V14.06c.06.06.05.14.05.22v1.4A.32.32,0,0,1,19.3,15.91Z"/><path class="cls-124" d="M19,14.06c0,.24.05.49-.06.73C19,14.55,18.92,14.29,19,14.06Z"/><path class="cls-124" d="M19,14.79a1.33,1.33,0,0,1-.74,0Z"/><path class="cls-147" d="M18.4,23.2V21.89c0-.1,0-.2,0-.28s-.29,0-.42,0a.11.11,0,0,1-.09-.14c0-.08.08-.08.15-.08h.31a.94.94,0,0,1,.41,0h.4c.06,0,.12,0,.12.1s-.05.1-.11.11-.29-.06-.38.06,0,.29,0,.44,0,.56,0,.84S18.65,23.25,18.4,23.2Z"/><path class="cls-127" d="M18.71,21.34H18.3A.43.43,0,0,1,18.71,21.34Z"/><path class="cls-127" d="M17.93,21.57c.14,0,.29-.05.42,0h-.42Z"/><path class="cls-148" d="M17.67,7c.1-.09.23-.06.35-.05,0,.22,0,.44,0,.66s-.05.19-.18.19-.18-.07-.18-.2Z"/><path class="cls-148" d="M19.35,7.46c0,.08-.08.16,0,.25-.11.14-.23.09-.36,0V6.94a.31.31,0,0,1,.31,0h0C19.36,7.1,19.29,7.28,19.35,7.46Z"/><path class="cls-130" d="M19.35,7.46a1.41,1.41,0,0,1,0-.54A1.23,1.23,0,0,1,19.35,7.46Z"/><path class="cls-130" d="M19,7.76a.46.46,0,0,0,.36,0C19.25,7.89,19.12,7.84,19,7.76Z"/><path class="cls-130" d="M19.3,6.92l-.31,0A.21.21,0,0,1,19.3,6.92Z"/><path class="cls-149" d="M18.61,17.55a.22.22,0,0,1,.28.17c.16.49.34,1,.51,1.47,0,.06.1.16,0,.2a.19.19,0,0,1-.26-.11c-.05-.11,0-.28-.17-.3a2.11,2.11,0,0,0-.71,0c-.11,0-.11.15-.13.24s-.13.21-.26.16,0-.16,0-.23c.16-.48.33-.95.49-1.42C18.38,17.59,18.46,17.52,18.61,17.55Z"/><path class="cls-150" d="M18.92,10.47l.22.09c.09.06.15.15.1.25s-.16,0-.23,0a.59.59,0,0,0-.82.54c0,.1,0,.21,0,.31,0,.54.34.77.87.62.06,0,.16-.15.21,0s0,.18-.14.23a.88.88,0,0,1-1.3-.72,1.79,1.79,0,0,1,.06-.76A1,1,0,0,1,18.92,10.47Z"/><path class="cls-120" d="M16.23,19a.65.65,0,0,1,0-.53Z"/><path class="cls-151" d="M16.85,11.9l-.25-.33a1.57,1.57,0,0,1,0-.23c0-.1,0-.22.14-.2s.29-.05.28.19a1.7,1.7,0,0,0,0,.55C17,11.94,16.9,11.89,16.85,11.9Z"/><path class="cls-152" d="M12.52,17.17c0-.41,0-.83,0-1.24a.9.9,0,1,1,1.79,0c0,.86,0,1.72,0,2.59,0,.15,0,.22-.2.22q-.69,0-1.38,0c-.18,0-.21-.08-.21-.24V17.17Z"/><path class="cls-153" d="M14.49,10.32v.09l-.43.41a1.28,1.28,0,0,1-1.16,0,1.15,1.15,0,0,0-.33-.21.13.13,0,0,1-.09-.1,1.31,1.31,0,0,1-.14-1.44c0-.08.11-.14.14-.22a.13.13,0,0,1,.1-.1A1.33,1.33,0,0,1,14,8.61h0a1.44,1.44,0,0,0,.27.22h0A1.39,1.39,0,0,1,14.49,10.32Z"/><path class="cls-154" d="M14,8.61l-.53-.09c-.35-.07-.61.16-.91.25l.12-.15A1.23,1.23,0,0,1,14,8.61Z"/><path class="cls-155" d="M12.48,8.87a1.9,1.9,0,0,0-.27.94c0,.27.22.47.27.72A1.19,1.19,0,0,1,12.48,8.87Z"/><path class="cls-155" d="M12.57,10.63a.31.31,0,0,1,.33.21A.49.49,0,0,1,12.57,10.63Z"/><path class="cls-154" d="M14.29,8.82A.32.32,0,0,1,14,8.6l.09,0C14.15,8.7,14.26,8.72,14.29,8.82Z"/><path class="cls-154" d="M14.49,10.32v-.06a1.6,1.6,0,0,0-.2-1.45l.19.18A1.27,1.27,0,0,1,14.49,10.32Z"/><path class="cls-156" d="M18.6,18.76c-.34,0-.35,0-.25-.35L18.5,18s0-.09.09-.09.07.05.08.09.11.3.16.45C19,18.73,18.93,18.76,18.6,18.76Z"/><path class="cls-71" d="M12.64,15.91c.24-.09.25-.11.07-.31s0-.11.07-.16.22-.31.43-.13c.06.06.14.09.21,0s.24-.06.36-.07a.23.23,0,0,1,.23.34c0,.07-.07.14,0,.2a2,2,0,0,1,.09,1c0,.5,0,1,0,1.5,0,.32,0,.32-.33.29-.1,0-.22,0-.31-.05.08-.09.18,0,.23-.05s-.15,0-.23.05a2.63,2.63,0,0,0-.79.05,1.68,1.68,0,0,1,0-.55q0-.94,0-1.89C12.62,16.08,12.59,16,12.64,15.91Z"/><path class="cls-157" d="M12.64,15.91V18.6c-.07,0-.05-.06-.05-.1V15.77C12.67,15.8,12.63,15.86,12.64,15.91Z"/><path class="cls-158" d="M18.67,18.34c0,.11.13.27-.05.28s-.15-.16-.11-.28S18.61,18.26,18.67,18.34Z"/><path class="cls-159" d="M18.67,18.34a.15.15,0,0,0-.16,0c0-.06,0-.12.08-.12S18.66,18.28,18.67,18.34Z"/><path class="cls-152" d="M13.43,18.55c.12-.2.28-.09.43-.06-.13.09-.28,0-.43.06Z"/><path class="cls-152" d="M13.81,15.58s0,0,0,0,0,0,.06,0,0,0,0,.05Z"/></svg>